<svg xmlns="http://www.w3.org/2000/svg" width="408.196" height="130.934" viewBox="0 0 408.196 130.934">
  <path id="パス_265" data-name="パス 265" d="M-201.147.349l-3.491-.591,10.662-34.241h5.022L-178.777-.242l-3.25.591-3.115-10.205,1.558,1.262h-15.925l1.584-1.262Zm3.115-10.474-.859-1.182H-184.5l-.859,1.182-6.58-22.559h.7ZM-163.2.269a15.674,15.674,0,0,1-3.76-.524,12.694,12.694,0,0,1-3.84-1.652l1.128-.564L-170.559,0h-2.578V-36.47h3.438v12.891l-.886-.51a15.125,15.125,0,0,1,4.337-2.2,13.993,13.993,0,0,1,3.854-.564q4.646,0,6.835,3.2t2.189,10.42q0,7.385-2.632,10.447A8.994,8.994,0,0,1-163.2.269Zm-.483-2.82q3.625,0,5.25-2.4t1.625-8.231q0-5.559-1.423-8.2a4.833,4.833,0,0,0-4.592-2.645,12.452,12.452,0,0,0-3.384.537,15.877,15.877,0,0,0-4.485,2.363l.994-1.8V-3.008l-.833-1.289a17.743,17.743,0,0,0,3.29,1.356A13.638,13.638,0,0,0-163.684-2.551Zm26.1,2.82q-5.425,0-7.869-3.451t-2.444-10.111q0-6.66,2.444-10.111t7.869-3.451q5.425,0,7.869,3.451t2.444,10.111q0,6.66-2.444,10.111T-137.581.269Zm0-2.82q3.975,0,5.425-2.874a17.68,17.68,0,0,0,1.45-7.869,17.68,17.68,0,0,0-1.45-7.869q-1.45-2.874-5.425-2.874t-5.425,2.874a17.68,17.68,0,0,0-1.45,7.869,17.68,17.68,0,0,0,1.45,7.869Q-141.555-2.551-137.581-2.551ZM-113.008.4a9.048,9.048,0,0,1-4.445-.98,5.928,5.928,0,0,1-2.6-2.994,13.18,13.18,0,0,1-.846-5.076V-26.453h3.438V-8.513a8.06,8.06,0,0,0,1.047,4.646,4.175,4.175,0,0,0,3.625,1.45,19.9,19.9,0,0,0,3.706-.4,14.452,14.452,0,0,0,4.834-2.148l-.994,1.8V-26.453h3.438V0h-2.578l-.483-1.719a23.164,23.164,0,0,1-4.445,1.705A15.988,15.988,0,0,1-113.008.4ZM-85.964.269A6.825,6.825,0,0,1-91.47-1.88Q-93.3-4.028-93.3-8.809V-25.083l1.208,1.316H-97.4v-2.686h5.425L-93.3-25.244l.779-8.728h2.659v8.728l-1.208-1.208h9.48v2.686h-9.48l1.208-1.316V-8.755q0,3.491.994,4.847t3.545,1.356a14.927,14.927,0,0,0,1.974-.134,10.932,10.932,0,0,0,1.786-.376l.4,2.686a20.059,20.059,0,0,1-2.471.483A18.1,18.1,0,0,1-85.964.269Zm28.789.081-3.491-.591L-50-34.482h5.022L-34.8-.242l-3.25.591L-41.169-9.856l1.558,1.262H-55.537l1.584-1.262Zm3.115-10.474-.859-1.182h14.395l-.859,1.182-6.58-22.559h.7ZM-19.551.269q-5.183,0-8.043-3.209t-2.86-10.38a20.478,20.478,0,0,1,.792-6.042,11.652,11.652,0,0,1,2.229-4.216,8.921,8.921,0,0,1,3.4-2.471,11.2,11.2,0,0,1,4.3-.806,9.486,9.486,0,0,1,5.116,1.329,8.67,8.67,0,0,1,3.276,3.719,12.832,12.832,0,0,1,1.141,5.586q0,.591-.054,1.517T-10.42-12.6H-28.225l1.235-1.45a17.457,17.457,0,0,0,.913,7.251,6.3,6.3,0,0,0,2.9,3.357,8.862,8.862,0,0,0,3.921.886,14.983,14.983,0,0,0,4.015-.5,23.13,23.13,0,0,0,3.478-1.276l1.155,2.444A16.408,16.408,0,0,1-14.73-.309,20.128,20.128,0,0,1-19.551.269ZM-13.428-13.8v-1.5a10.014,10.014,0,0,0-1.423-6.351,5.519,5.519,0,0,0-4.861-2.377,6.456,6.456,0,0,0-5.626,2.712q-1.92,2.712-1.652,7.358l-1.235-1.047h16.033ZM-3.652,0V-26.453h2.578l.591,2.793A17.574,17.574,0,0,1,2.095-25.1a23.522,23.522,0,0,1,3.2-1.208,12.512,12.512,0,0,1,3.088-.551v3.276a16.667,16.667,0,0,0-3.652.4,17.573,17.573,0,0,0-3.209,1.021A7.73,7.73,0,0,0-.618-20.867l.4-1.531V0ZM12.139,0V-2.686h5.156V-23.767H12.246v-2.686h8.486V-2.686h5.156V0Zm6.848-31.582a2.336,2.336,0,0,1-1.719-.7A2.336,2.336,0,0,1,16.57-34a2.336,2.336,0,0,1,.7-1.719,2.336,2.336,0,0,1,1.719-.7,2.336,2.336,0,0,1,1.719.7A2.336,2.336,0,0,1,21.4-34a2.336,2.336,0,0,1-.7,1.719A2.336,2.336,0,0,1,18.987-31.582ZM38.645.269a9.563,9.563,0,0,1-6.1-1.88,6.7,6.7,0,0,1-2.39-5.613,8.253,8.253,0,0,1,.967-3.719,8.023,8.023,0,0,1,3.156-3.236A11.208,11.208,0,0,1,40.1-15.5a24.98,24.98,0,0,1,2.994.161,19.015,19.015,0,0,1,3.854.833l-1.4.859v-2.712a12.851,12.851,0,0,0-.685-4.74,4.289,4.289,0,0,0-1.934-2.3,6.331,6.331,0,0,0-2.941-.645,19.856,19.856,0,0,0-3.639.376,32.187,32.187,0,0,0-3.988,1.021L31.689-25.3a34.414,34.414,0,0,1,4.3-1.128,21.774,21.774,0,0,1,4.163-.43A11.365,11.365,0,0,1,45-25.929a6.108,6.108,0,0,1,2.981,3.115,14.551,14.551,0,0,1,1.007,5.975V0H46.406l-.833-3.035.645.967a7.985,7.985,0,0,1-1.705.98,16.536,16.536,0,0,1-2.739.953A12.345,12.345,0,0,1,38.645.269Zm.537-2.739A12.564,12.564,0,0,0,43.1-3.1,8.878,8.878,0,0,0,46.03-4.565l-.483,1.558V-13.481l.967,1.558a13.025,13.025,0,0,0-2.9-.846,15.922,15.922,0,0,0-2.39-.2,9.756,9.756,0,0,0-5.6,1.4A4.669,4.669,0,0,0,33.6-7.466a4.606,4.606,0,0,0,1.464,3.84A6.51,6.51,0,0,0,39.182-2.471ZM54.49,0V-2.686h5.693v-31.1H54.6V-36.47h9.023V-2.686h5.693V0Zm62.869,0V-15.737l-9.883-18.557,3.491-.591,8.647,16.919h-1.021l8.567-16.919,3.518.591-9.883,18.5V0ZM141.34.269q-5.425,0-7.869-3.451t-2.444-10.111q0-6.66,2.444-10.111t7.869-3.451q5.425,0,7.869,3.451t2.444,10.111q0,6.66-2.444,10.111T141.34.269Zm0-2.82q3.975,0,5.425-2.874a17.68,17.68,0,0,0,1.45-7.869,17.68,17.68,0,0,0-1.45-7.869q-1.45-2.874-5.425-2.874t-5.425,2.874a17.68,17.68,0,0,0-1.45,7.869,17.68,17.68,0,0,0,1.45,7.869Q137.366-2.551,141.34-2.551Zm25.593,13.374a18.279,18.279,0,0,1-5.452-.671,8.525,8.525,0,0,1-3.236-1.732,5.7,5.7,0,0,1-1.558-2.229,6.476,6.476,0,0,1-.416-2.162,6.189,6.189,0,0,1,.524-2.511,9.515,9.515,0,0,1,1.222-2.081,5.067,5.067,0,0,1,1.235-1.208,5.162,5.162,0,0,1-1.584-2.457,9.559,9.559,0,0,1-.322-2.323,5.227,5.227,0,0,1,.9-2.833,24,24,0,0,1,2.618-3.263l-.3,1.719a8.4,8.4,0,0,1-2.377-2.753,9.185,9.185,0,0,1-.9-4.391q0-4.727,2.847-6.821a11.73,11.73,0,0,1,7.144-2.095,16.882,16.882,0,0,1,2.444.134q.859.134,1.558.269a9.471,9.471,0,0,0,1.746.134h7.708v2.686h-6.794l1.4-.269a8.988,8.988,0,0,1,1.826,5.962q0,4.7-2.78,6.794a11.479,11.479,0,0,1-7.1,2.095,14.135,14.135,0,0,1-3.545-.376,10.749,10.749,0,0,1-2.363-.886l1.316-.3a7.785,7.785,0,0,0-1.5,1.786,4.369,4.369,0,0,0-.779,2.4,3.79,3.79,0,0,0,.537,2.028,1.678,1.678,0,0,0,1.5.873h8.7q4,0,5.8,1.49a5.439,5.439,0,0,1,1.8,4.445,7.908,7.908,0,0,1-1.088,3.787A8.672,8.672,0,0,1,174,9.44,15.059,15.059,0,0,1,166.934,10.823Zm-.107-2.766a12.74,12.74,0,0,0,5.129-.846,5.886,5.886,0,0,0,2.686-2.135,4.792,4.792,0,0,0,.806-2.551,3.374,3.374,0,0,0-.792-2.336Q173.862-.7,171.311-.7h-10.85l1.8-.564A11.683,11.683,0,0,0,160.5.712a4.491,4.491,0,0,0-.792,2.672,7.126,7.126,0,0,0,.175,1.5,3.329,3.329,0,0,0,.833,1.531A4.715,4.715,0,0,0,162.825,7.6,13.861,13.861,0,0,0,166.826,8.057Zm.457-20.007a7.412,7.412,0,0,0,4.659-1.437q1.866-1.437,1.866-4.686,0-3.276-1.866-4.713a7.412,7.412,0,0,0-4.659-1.437,7.47,7.47,0,0,0-4.673,1.437q-1.88,1.437-1.88,4.713,0,3.25,1.88,4.686A7.47,7.47,0,0,0,167.283-11.951Zm25,12.219a9.563,9.563,0,0,1-6.1-1.88,6.7,6.7,0,0,1-2.39-5.613,8.253,8.253,0,0,1,.967-3.719,8.023,8.023,0,0,1,3.156-3.236,11.208,11.208,0,0,1,5.814-1.316,24.98,24.98,0,0,1,2.994.161,19.015,19.015,0,0,1,3.854.833l-1.4.859v-2.712a12.851,12.851,0,0,0-.685-4.74,4.289,4.289,0,0,0-1.934-2.3,6.331,6.331,0,0,0-2.941-.645,19.856,19.856,0,0,0-3.639.376A32.187,32.187,0,0,0,186-22.639L185.33-25.3a34.415,34.415,0,0,1,4.3-1.128,21.774,21.774,0,0,1,4.163-.43,11.365,11.365,0,0,1,4.847.927,6.108,6.108,0,0,1,2.981,3.115,14.551,14.551,0,0,1,1.007,5.975V0h-2.578l-.833-3.035.645.967a7.985,7.985,0,0,1-1.705.98,16.536,16.536,0,0,1-2.739.953A12.345,12.345,0,0,1,192.285.269Zm.537-2.739a12.564,12.564,0,0,0,3.921-.631,8.878,8.878,0,0,0,2.927-1.464l-.483,1.558V-13.481l.967,1.558a13.025,13.025,0,0,0-2.9-.846,15.922,15.922,0,0,0-2.39-.2,9.756,9.756,0,0,0-5.6,1.4,4.669,4.669,0,0,0-2.028,4.109,4.606,4.606,0,0,0,1.464,3.84A6.51,6.51,0,0,0,192.822-2.471Z" transform="matrix(0.978, -0.208, 0.208, 0.978, 207.749, 77.801)" fill="#c2822f"/>
</svg>
