<svg xmlns="http://www.w3.org/2000/svg" width="34" height="34" viewBox="0 0 34 34">
  <g id="グループ_57" data-name="グループ 57" transform="translate(-1147 -13.5)">
    <circle id="楕円形_20" data-name="楕円形 20" cx="17" cy="17" r="17" transform="translate(1147 13.5)" fill="#fff"/>
    <path id="パス_22" data-name="パス 22" d="M22.026,2.468a3.061,3.061,0,0,0-.633-1.34A2.7,2.7,0,0,0,21.186.9,3.057,3.057,0,0,0,19.02,0H3.063A3.062,3.062,0,0,0,.9.9a2.954,2.954,0,0,0-.208.23,3.026,3.026,0,0,0-.63,1.34,2.95,2.95,0,0,0-.06.6V14.27a3.048,3.048,0,0,0,.254,1.217,3,3,0,0,0,.644.948c.069.069.137.132.211.194a3.061,3.061,0,0,0,1.955.7H19.02a3.039,3.039,0,0,0,1.955-.707,2.572,2.572,0,0,0,.211-.191,3.052,3.052,0,0,0,.647-.948v0a3.033,3.033,0,0,0,.251-1.214V3.063a3.165,3.165,0,0,0-.057-.6M2.006,2.006a1.476,1.476,0,0,1,1.057-.439H19.02a1.472,1.472,0,0,1,1.057.439,1.4,1.4,0,0,1,.134.156l-8.363,7.29a1.217,1.217,0,0,1-.806.3,1.229,1.229,0,0,1-.807-.3L1.875,2.159a1.071,1.071,0,0,1,.131-.153M1.567,14.27V3.781l6.053,5.28L1.57,14.335a.48.48,0,0,1,0-.065m17.453,1.5H3.063a1.469,1.469,0,0,1-.74-.2l6.383-5.562.6.518a2.652,2.652,0,0,0,3.485,0l.6-.518,6.38,5.562a1.474,1.474,0,0,1-.741.2m1.5-1.5a.48.48,0,0,1,0,.065l-6.05-5.271,6.053-5.281Z" transform="translate(1153 21.5)" fill="#0673bc"/>
  </g>
</svg>
