<svg xmlns="http://www.w3.org/2000/svg" width="34" height="34" viewBox="0 0 34 34">
  <g id="グループ_49" data-name="グループ 49" transform="translate(-1159 -287)">
    <circle id="楕円形_18" data-name="楕円形 18" cx="17" cy="17" r="17" transform="translate(1159 287)" fill="#fff"/>
    <path id="パス_21" data-name="パス 21" d="M12.873,0H3.049A3.052,3.052,0,0,0,0,3.048v20.3A3.052,3.052,0,0,0,3.049,26.4h9.824a3.052,3.052,0,0,0,3.049-3.048V3.048A3.052,3.052,0,0,0,12.873,0M7.961,24.6A1.235,1.235,0,1,1,9.2,23.364,1.237,1.237,0,0,1,7.961,24.6m6.156-4.2H1.8V3.86H14.117Z" transform="translate(1168.078 290.8)" fill="#2fb6c2"/>
  </g>
</svg>
