<svg xmlns="http://www.w3.org/2000/svg" width="34" height="34" viewBox="0 0 34 34">
  <g id="グループ_51" data-name="グループ 51" transform="translate(-1159 -287)">
    <circle id="楕円形_19" data-name="楕円形 19" cx="17" cy="17" r="17" transform="translate(1159 287)" fill="#fff"/>
    <path id="パス_19" data-name="パス 19" d="M14.65,8.738H4.721V5.214a3.382,3.382,0,1,1,6.764,0V6.619h1.832V5.214a5.214,5.214,0,1,0-10.427,0V8.738H1.557A1.557,1.557,0,0,0,0,10.3v4.941c0,4.072,3.628,7.374,8.1,7.374s8.1-3.3,8.1-7.374V10.3A1.557,1.557,0,0,0,14.65,8.738M8.694,15.7l.475,2.03H7.038L7.513,15.7a1.587,1.587,0,1,1,1.181,0" transform="translate(1167.002 293)" fill="#f18f1f"/>
  </g>
</svg>
