<svg xmlns="http://www.w3.org/2000/svg" width="120.467" height="97.22" viewBox="0 0 120.467 97.22">
  <g id="グループ_41755" data-name="グループ 41755" transform="translate(0.228 0.228)">
    <g id="グループ_41906" data-name="グループ 41906">
      <line id="線_12" data-name="線 12" y1="0.753" x2="12.26" transform="translate(68.699 94.649)" fill="none" stroke="#d6f2f5" stroke-linecap="round" stroke-miterlimit="10" stroke-width="3"/>
      <line id="線_13" data-name="線 13" y1="2.02" x2="28.194" transform="translate(90.441 91.72)" fill="none" stroke="#d6f2f5" stroke-linecap="round" stroke-miterlimit="10" stroke-width="3"/>
    </g>
    <g id="グループ_41907" data-name="グループ 41907">
      <line id="線_11" data-name="線 11" y1="4.691" x2="14.897" transform="translate(63.635 76.877)" fill="none" stroke="#3fa6f5" stroke-linecap="round" stroke-miterlimit="10" stroke-width="3"/>
      <path id="パス_169" data-name="パス 169" d="M88.673,77.131a2.429,2.429,0,1,1,.654-3.373A2.429,2.429,0,0,1,88.673,77.131Z" fill="none" stroke="#3fa6f5" stroke-linecap="round" stroke-miterlimit="10" stroke-width="3"/>
    </g>
    <line id="線_10" data-name="線 10" y1="11.612" x2="23.478" transform="translate(52.975 57.12)" fill="none" stroke="#d6f2f5" stroke-linecap="round" stroke-miterlimit="10" stroke-width="3"/>
    <g id="グループ_41908" data-name="グループ 41908">
      <line id="線_9" data-name="線 9" y1="10.975" x2="13.033" transform="translate(42.425 49.739)" fill="none" stroke="#e2dd9a" stroke-linecap="round" stroke-miterlimit="10" stroke-width="3"/>
      <path id="パス_170" data-name="パス 170" d="M64.769,43.512a2.429,2.429,0,1,1-2.8-1.992A2.429,2.429,0,0,1,64.769,43.512Z" fill="none" stroke="#e2dd9a" stroke-linecap="round" stroke-miterlimit="10" stroke-width="3"/>
    </g>
    <g id="グループ_41905" data-name="グループ 41905">
      <line id="線_7" data-name="線 7" y1="10.078" x2="7.011" transform="translate(31.651 42.448)" fill="none" stroke="#3fa6f5" stroke-linecap="round" stroke-miterlimit="10" stroke-width="3"/>
      <line id="線_8" data-name="線 8" y1="21.681" x2="15.598" transform="translate(42.378 15.278)" fill="none" stroke="#3fa6f5" stroke-linecap="round" stroke-miterlimit="10" stroke-width="3"/>
    </g>
    <g id="グループ_41909" data-name="グループ 41909">
      <line id="線_6" data-name="線 6" y1="15.969" x2="3.727" transform="translate(21.216 31.742)" fill="none" stroke="#d6f2f5" stroke-linecap="round" stroke-miterlimit="10" stroke-width="3"/>
      <path id="パス_168" data-name="パス 168" d="M29.374,22.618a2.429,2.429,0,1,1-2.8-1.992A2.429,2.429,0,0,1,29.374,22.618Z" fill="none" stroke="#d6f2f5" stroke-linecap="round" stroke-miterlimit="10" stroke-width="3"/>
    </g>
    <g id="グループ_41904" data-name="グループ 41904">
      <line id="線_4" data-name="線 4" x1="3.809" y1="22.624" transform="translate(4.99 22.223)" fill="none" stroke="#e2dd9a" stroke-linecap="round" stroke-miterlimit="10" stroke-width="3"/>
      <line id="線_5" data-name="線 5" x1="2.058" y1="12.222" transform="translate(1.5 1.5)" fill="none" stroke="#e2dd9a" stroke-linecap="round" stroke-miterlimit="10" stroke-width="3"/>
    </g>
  </g>
</svg>
