<svg xmlns="http://www.w3.org/2000/svg" width="219.394" height="216.499" viewBox="0 0 219.394 216.499">
  <g id="グループ_18" data-name="グループ 18" transform="matrix(0.966, -0.259, 0.259, 0.966, -568.166, -1196.774)">
    <path id="パス_15" data-name="パス 15" d="M180,87.953c0,6.595-8.258,12.172-9.662,18.342-1.448,6.37,3.537,14.971.765,20.717-2.82,5.843-12.678,7.291-16.685,12.309-4.028,5.042-3.259,14.973-8.3,19-5.016,4.007-14.522,1.064-20.363,3.883-5.748,2.772-9.352,12.063-15.722,13.511-6.169,1.4-13.435-5.373-20.028-5.373s-13.859,6.776-20.03,5.373c-6.37-1.448-9.976-10.739-15.722-13.513-5.845-2.818-15.347.126-20.365-3.882-5.044-4.028-4.275-13.957-8.3-19C21.575,134.3,11.715,132.854,8.9,127.012c-2.774-5.748,2.213-14.347.763-20.717C8.258,100.125,0,94.548,0,87.953S8.258,75.781,9.658,69.611c1.45-6.37-3.537-14.971-.763-20.717,2.82-5.843,12.68-7.291,16.687-12.309,4.026-5.042,3.259-14.973,8.3-19C38.9,13.579,48.4,16.523,54.249,13.7,60,10.931,63.6,1.64,69.971.192,76.141-1.211,83.406,5.565,90,5.565S103.86-1.211,110.029.192C116.4,1.64,120,10.931,125.751,13.7c5.841,2.818,15.347-.126,20.367,3.882,5.04,4.028,4.274,13.957,8.3,19,4.005,5.019,13.865,6.467,16.683,12.309,2.772,5.748-2.213,14.347-.765,20.717,1.4,6.171,9.662,11.747,9.662,18.342" transform="translate(227 1348.047)" fill="#e1185d"/>
    <path id="パス_265" data-name="パス 265" d="M17.4-.854q1.16.073,2.148.073.769,0,.769-.867v-4.5H16.3A19.7,19.7,0,0,1,15.381-1.6a14.532,14.532,0,0,1-1.465,2.966q-.293.476-.452.476-.122,0-.5-.378A6.416,6.416,0,0,0,11.414.293,11.274,11.274,0,0,0,13.623-4.48a39.763,39.763,0,0,0,.464-7.117v-4.126l-.049-4.138a.415.415,0,0,1,.049-.256.456.456,0,0,1,.232-.037l2.576.049h3.064l2.576-.049q.208,0,.244.061a.456.456,0,0,1,.037.232l-.049,4.138V-4.456L22.839-1a2.581,2.581,0,0,1-.72,2.051,5.187,5.187,0,0,1-3.076.647,1.387,1.387,0,0,1-.745-.11,2.276,2.276,0,0,1-.232-.659A5.111,5.111,0,0,0,17.4-.854Zm-.952-7.52h3.87v-3.65h-3.8v.452Q16.516-9.8,16.443-8.374Zm3.87-9.436h-3.8v3.564h3.8ZM4.492-3.723l-3.125.049q-.2,0-.232-.049a.42.42,0,0,1-.037-.22V-5.652q0-.2.049-.232a.42.42,0,0,1,.22-.037l2,.049v-9.68q-.671.012-1.245.037l-.4.012a.445.445,0,0,1-.269-.049.319.319,0,0,1-.037-.2V-17.48q0-.2.061-.232a.492.492,0,0,1,.244-.037l1.648.049v-.427a16.372,16.372,0,0,0-.146-2.6q1.392.049,2.368.146.354.049.354.232a1.616,1.616,0,0,1-.146.476,6.617,6.617,0,0,0-.122,1.721v.452H9.119v-.476a16.655,16.655,0,0,0-.146-2.6q2.039.134,2.356.171.354.049.354.232a2.262,2.262,0,0,1-.122.476,5.916,5.916,0,0,0-.159,1.746v.452q.513-.012,1.038-.037l.366-.012q.244,0,.244.269v1.733a.216.216,0,0,1-.244.244l-1.4-.024v9.656q.537-.012,1.062-.037l.366-.012q.244,0,.244.269v1.709q0,.269-.244.269L9.778-3.723ZM5.676-5.872H9.119V-7.8H5.676Zm0-7.751H9.119v-1.929H5.676Zm0,3.845H9.119v-1.868H5.676Zm.317,8.484A15.83,15.83,0,0,1,3.1,1.624a1.328,1.328,0,0,1-.549.281q-.183,0-.562-.452A6.727,6.727,0,0,0,.7.22,11.709,11.709,0,0,0,3.943-2.551a5.757,5.757,0,0,0,.6-.977,16.725,16.725,0,0,1,1.929.879q.354.171.354.378t-.281.342A3.484,3.484,0,0,0,5.994-1.294ZM9.875-3.345A11.27,11.27,0,0,0,12-1.172,7.058,7.058,0,0,0,10.62.049q-.305.378-.427.378T9.778.122A13.326,13.326,0,0,1,7.971-2.2a.445.445,0,0,1-.085-.22q0-.11.183-.232l1.306-.72a.731.731,0,0,1,.293-.159Q9.766-3.528,9.875-3.345ZM44.724-.977a16.773,16.773,0,0,0,2.1.122,1.154,1.154,0,0,0,.854-.232,1.2,1.2,0,0,0,.171-.745V-11.8h-4.1l-2.734.049q-.208,0-.244-.061a.492.492,0,0,1-.037-.244l.049-2.185V-17.7l-.049-2.2a.445.445,0,0,1,.049-.269.456.456,0,0,1,.232-.037l2.734.049h3.674l2.783-.049q.2,0,.232.061a.492.492,0,0,1,.037.244l-.049,3.3V-6.335l.1,4.98A3.034,3.034,0,0,1,49.8.952a2.492,2.492,0,0,1-1.221.537,14.988,14.988,0,0,1-2.356.134q-.6,0-.7-.11a1.731,1.731,0,0,1-.208-.671A7.681,7.681,0,0,0,44.724-.977ZM43.235-13.6h4.614v-1.5H43.235Zm4.614-4.675H43.235V-16.8h4.614Zm-11.621-1.88,2.527-.049q.171,0,.208.061A.492.492,0,0,1,39-19.9l-.049,2.368v3.1L39-12.061a.445.445,0,0,1-.049.269.319.319,0,0,1-.2.037L36.228-11.8H32.175v8.093l.049,5.334q0,.2-.049.232a.42.42,0,0,1-.22.037H29.819a.367.367,0,0,1-.226-.043.367.367,0,0,1-.043-.226L29.6-3.711V-14.526L29.551-19.9a.445.445,0,0,1,.049-.269.456.456,0,0,1,.232-.037l2.942.049ZM36.5-13.6v-1.5H32.175v1.5Zm0-4.675H32.175V-16.8H36.5ZM37.327.171h-1.77q-.208,0-.244-.049a.492.492,0,0,1-.037-.244l.049-4.529v-2.2l-.049-3.125q0-.208.049-.244a.456.456,0,0,1,.232-.037l2.673.049H41.6l2.686-.049q.2,0,.232.049a.456.456,0,0,1,.037.232l-.049,2.7V-4.8l.049,4.419a.4.4,0,0,1-.043.238.367.367,0,0,1-.226.043H42.478q-.2,0-.232-.049a.456.456,0,0,1-.037-.232v-.769H37.632V-.122q0,.208-.049.25A.464.464,0,0,1,37.327.171Zm.305-3.223h4.578V-4.8H37.632Zm0-5.225v1.685h4.578V-8.276ZM72.517-3.052a10.168,10.168,0,0,0-.1,1.575,1.411,1.411,0,0,1-.122.769,1.616,1.616,0,0,1-.623.256q-2.869.891-6.36,1.7a2.343,2.343,0,0,0-.793.305.679.679,0,0,1-.4.171.3.3,0,0,1-.305-.244A18.543,18.543,0,0,1,63.264-.9a19.535,19.535,0,0,0,2.1-.269l.83-.159V-15.222l-.049-4.407q0-.2.049-.232a.42.42,0,0,1,.22-.037l3.235.049h4.419l2.881-.049q.2,0,.232.049a.42.42,0,0,1,.037.22l-.049,2.747v4.626l.049,2.783q0,.2-.049.232a.42.42,0,0,1-.22.037l-2.881-.049H72.847a15.4,15.4,0,0,0,.977,3.247q.854-.671,2.075-1.843a6.846,6.846,0,0,0,.793-1.05,19.962,19.962,0,0,1,1.733,1.453.67.67,0,0,1,.2.391q0,.256-.305.354a3.128,3.128,0,0,0-1.074.745,27.388,27.388,0,0,1-2.295,1.9A11,11,0,0,0,79.268-.476a7.355,7.355,0,0,0-1.123,1.807q-.305.6-.452.6a1.55,1.55,0,0,1-.549-.281q-5.518-3.54-6.653-10.9h-1.77V-1.88Q70.8-2.417,72.517-3.052Zm2.124-8.325V-13.6h-5.92v2.222Zm0-6.274h-5.92V-15.6h5.92ZM60.176-5.273q.2.012.366.012a2.334,2.334,0,0,0,1.6-.439,1.753,1.753,0,0,0,.476-1.367,4.74,4.74,0,0,0-.488-2.026A19.824,19.824,0,0,0,60.3-12a32.553,32.553,0,0,0,2.271-5.652h-2.8V-3.6l.049,5.3a.386.386,0,0,1-.049.244.42.42,0,0,1-.22.037H57.515a.367.367,0,0,1-.226-.043.4.4,0,0,1-.043-.238l.049-5.3V-14.38l-.049-5.31a.445.445,0,0,1,.049-.269A.456.456,0,0,1,57.527-20l2.124.049h3.674a1.215,1.215,0,0,0,.5-.073.608.608,0,0,1,.269-.073q.317,0,.977.745.647.647.647.977a.593.593,0,0,1-.244.452,2.052,2.052,0,0,0-.476.793,50.954,50.954,0,0,1-2.1,4.919A11.083,11.083,0,0,1,64.79-8.826a7.3,7.3,0,0,1,.256,2.075q0,3.589-3.418,3.87-.305.024-.4.024-.317,0-.4-.159a2.037,2.037,0,0,1-.1-.586A3.094,3.094,0,0,0,60.176-5.273Zm31.382-5.969-3.369.049a.445.445,0,0,1-.269-.049.456.456,0,0,1-.037-.232v-1.831q0-.2.061-.232a.492.492,0,0,1,.244-.037l3.369.049h7.056l3.369-.049a.386.386,0,0,1,.244.049.42.42,0,0,1,.037.22v1.831a.386.386,0,0,1-.049.244.456.456,0,0,1-.232.037l-3.369-.049H96.489v3.32h3.052l2.869-.049q.22,0,.256.049a.332.332,0,0,1,.049.22v1.831q0,.171-.049.208a.531.531,0,0,1-.256.037l-2.869-.049H96.489V-1.4a43.622,43.622,0,0,0,4.822.22q1.892,0,4.846-.22a7.033,7.033,0,0,0-.476,1.794q-.073.6-.22.708a1.786,1.786,0,0,1-.671.146q-1.428.073-2.954.073Q95.2,1.294,92.534.1a8.181,8.181,0,0,1-3.369-3.125,14.527,14.527,0,0,1-3.052,4.272q-.391.427-.549.427-.134,0-.5-.476A5.407,5.407,0,0,0,83.611-.1a11.7,11.7,0,0,0,4.5-7.9,15.26,15.26,0,0,0,.146-1.6q1.086.159,2.38.476.476.1.476.342a.819.819,0,0,1-.232.476,2.271,2.271,0,0,0-.33.781A17.653,17.653,0,0,1,90.1-5.554a8.741,8.741,0,0,0,1.6,2.307,5.959,5.959,0,0,0,2.161,1.27v-9.265Zm10.449-7.1,3.3-.049q.281,0,.281.244l-.049,1.306v1.074l.049,2.747q0,.2-.061.232a.381.381,0,0,1-.22.037h-2.051q-.2,0-.232-.049a.42.42,0,0,1-.037-.22v-3.027H87.163v3.027q0,.2-.061.232a.492.492,0,0,1-.244.037H84.832q-.2,0-.232-.049a.42.42,0,0,1-.037-.22l.049-2.747v-.854l-.049-1.526q0-.244.269-.244l3.333.049h5.347v-.22a10.908,10.908,0,0,0-.183-2.38q1.257,0,2.673.122.378.049.378.256a1.616,1.616,0,0,1-.146.476,6,6,0,0,0-.1,1.5v.244Z" transform="translate(263.061 1423.901)" fill="#fff"/>
    <g id="グループ_17" data-name="グループ 17" transform="translate(2.061 -16.099)">
      <text id="名" transform="translate(348 1482)" fill="#fff" font-size="25" font-family="YuGothic-Bold, Yu Gothic" font-weight="700"><tspan x="0" y="0">名</tspan></text>
      <text id="_20" data-name="20" transform="translate(304 1485)" fill="#fff" font-size="40" font-family="YuMincho-Demibold, Yu Mincho" font-weight="300"><tspan x="0" y="0">20</tspan></text>
      <text id="先着" transform="translate(252 1482)" fill="#fff" font-size="25" font-family="YuGothic-Bold, Yu Gothic" font-weight="700"><tspan x="0" y="0">先着</tspan></text>
    </g>
  </g>
</svg>
