<svg xmlns="http://www.w3.org/2000/svg" width="152" height="74.135" viewBox="0 0 152 74.135">
  <g id="グループ_41693" data-name="グループ 41693" transform="translate(-596 -9179)">
    <path id="パス_265" data-name="パス 265" d="M-22.148-14.543-25.3-14.5q-.187,0-.223-.047a.437.437,0,0,1-.035-.223v-1.793q0-.2.047-.234a.4.4,0,0,1,.211-.035l3.152.047h1.219v-.6a17.217,17.217,0,0,0-.164-2.707,24.231,24.231,0,0,1,2.543.188q.363.035.363.234a.955.955,0,0,1-.07.328,2.136,2.136,0,0,0-.105.281,8.95,8.95,0,0,0-.094,1.629v.645h2.086l3.152-.047q.188,0,.223.047a.437.437,0,0,1,.035.223v1.793q0,.2-.047.234a.4.4,0,0,1-.211.035l-3.152-.047h-2.086v3.07h2.238a.832.832,0,0,0,.469-.105,1.248,1.248,0,0,1,.293-.117q.258,0,.914.621.715.691.715.938a.527.527,0,0,1-.234.457,2.514,2.514,0,0,0-.539.914,18.584,18.584,0,0,1-3.211,5.309,14.177,14.177,0,0,0,5.379,2.8,7.567,7.567,0,0,0-1.078,1.8q-.234.6-.434.6a2.729,2.729,0,0,1-.551-.164,17.728,17.728,0,0,1-5.086-3.27,18.082,18.082,0,0,1-5.93,3.445,3.932,3.932,0,0,1-.574.164q-.2,0-.5-.574A5.068,5.068,0,0,0-27.7-.047a18.376,18.376,0,0,0,6.563-3.387A18.145,18.145,0,0,1-24.047-9.34l-1.137.023q-.187,0-.223-.047a.4.4,0,0,1-.035-.211v-1.687q0-.187.047-.223a.4.4,0,0,1,.211-.035l3,.047h1.254v-3.07Zm5.18,5.18h-4.652a13.033,13.033,0,0,0,2.18,4.219A13.92,13.92,0,0,0-16.969-9.363Zm-11.426-6.375a19.235,19.235,0,0,1,1.98.141q.34.082.34.293a.861.861,0,0,1-.059.281,2.1,2.1,0,0,0-.082.246,17.123,17.123,0,0,0-.094,2.473v6.023l.047,3.457a.352.352,0,0,1-.041.217.352.352,0,0,1-.217.041h-1.453q-.187,0-.223-.047a.4.4,0,0,1-.035-.211v-.891h-3.891V-1.7a.371.371,0,0,1-.047.234.4.4,0,0,1-.211.035h-1.547q-.187,0-.223-.059a.366.366,0,0,1-.035-.211l.047-3.738V-12.3a33.786,33.786,0,0,0-.141-3.434q1.547.07,2.051.141.293.035.293.27a1.065,1.065,0,0,1-.094.352,14.885,14.885,0,0,0-.094,2.355v6.727h.914V-16.488a29.613,29.613,0,0,0-.164-3.422q1.418.047,2.133.141.34.035.34.234a1.194,1.194,0,0,1-.059.316q-.07.223-.094.293a17.075,17.075,0,0,0-.094,2.414V-5.895h.914V-12.3A28.451,28.451,0,0,0-28.395-15.738ZM-7.465-1.7l-2.977.047q-.234,0-.234-.258V-3.621q0-.258.234-.258l2.977.047h6.105V-5.4H-3.832l-3.609.047q-.258,0-.258-.234l.047-2.977v-6.246L-7.7-17.8q0-.2.047-.234a.4.4,0,0,1,.211-.035l3.563.047h1.242q.059-.094.434-.844a6.348,6.348,0,0,0,.434-1.395q1.641.223,2.414.387.316.082.316.316A.616.616,0,0,1,.75-19.2a1.777,1.777,0,0,0-.387.5,5.408,5.408,0,0,1-.34.668H3.105l3.516-.047q.2,0,.234.047a.437.437,0,0,1,.035.223l-.047,1.723v1.746L6.891-12.6q0,.188-.047.223a.437.437,0,0,1-.223.035l-3.516-.047H-5.227v1.395H4.008l3.773-.047q.188,0,.223.047a.437.437,0,0,1,.035.223L7.992-9v1.605l.047,1.8q0,.234-.258.234L4.008-5.4h-2.8v1.57H7.559l2.977-.047q.246,0,.246.258V-1.91q0,.258-.246.258L7.559-1.7H1.207v.961l.047,2.473q0,.188-.047.223a.437.437,0,0,1-.223.035H-1.125a.427.427,0,0,1-.258-.047.4.4,0,0,1-.035-.211l.059-2.473V-1.7ZM5.543-7.418V-9H-5.227v1.582ZM4.395-14.379v-1.652H-5.227v1.652Zm27.211-1.383H28.465A36.483,36.483,0,0,1,27.117-5.637a15.15,15.15,0,0,1-4.852,7.055q-.375.34-.48.34-.141,0-.5-.5A5.8,5.8,0,0,0,19.793-.117a11.849,11.849,0,0,0,4.969-6.574,31.105,31.105,0,0,0,1.078-9.07h-.117l-3.023.047q-.211,0-.246-.047a.319.319,0,0,1-.047-.211v-1.9q0-.211.059-.258a.473.473,0,0,1,.234-.035l3.023.047h5.133l3.047-.047q.293,0,.293.316-.047.785-.047,2.133a96.506,96.506,0,0,1-.8,14.168A3.864,3.864,0,0,1,32.2.867a3.643,3.643,0,0,1-2.379.68h-.809A10.033,10.033,0,0,1,27.961,1.5q-.445-.035-.539-.2a2.488,2.488,0,0,1-.187-.715,4.261,4.261,0,0,0-.621-1.8,15.561,15.561,0,0,0,2.73.246q1.336,0,1.594-1.652A90.837,90.837,0,0,0,31.605-15.762ZM12.668-6.738a19.863,19.863,0,0,0,3.938-3.68,17.256,17.256,0,0,0,2.4-3.738H16.266l-2.52.047q-.187,0-.223-.047a.4.4,0,0,1-.035-.211v-1.781a.371.371,0,0,1,.047-.234.4.4,0,0,1,.211-.035l2.52.059h.41v-.82a16.252,16.252,0,0,0-.187-2.906q1.289.035,2.5.164.387.047.387.246a1.433,1.433,0,0,1-.141.527,5.63,5.63,0,0,0-.176,1.875v.914h.8a1.12,1.12,0,0,0,.527-.129.684.684,0,0,1,.3-.141q.27,0,.938.691.6.645.6.914,0,.176-.293.387a3.072,3.072,0,0,0-.527.773,29.978,29.978,0,0,1-2.074,3.469,6.9,6.9,0,0,0,.855,1.043,14.248,14.248,0,0,0,1.031-1.441A6.145,6.145,0,0,0,21.762-12q1.336.8,1.711,1.078a.569.569,0,0,1,.234.387q0,.188-.234.27a2.213,2.213,0,0,0-.551.551q-.176.2-.715.879-.363.434-.633.75.961.738,1.652,1.172A8.071,8.071,0,0,0,22.2-5.52q-.316.5-.457.5t-.5-.363a19.4,19.4,0,0,1-2.2-2.344V-1.1l.047,2.766q0,.188-.047.223a.4.4,0,0,1-.211.035H16.863q-.187,0-.223-.047a.4.4,0,0,1-.035-.211L16.652-1.1V-7.125A22.21,22.21,0,0,1,14.32-4.992a1.048,1.048,0,0,1-.5.293q-.176,0-.375-.551A5.452,5.452,0,0,0,12.668-6.738Z" transform="translate(672 9216)" fill="#2fb6c2"/>
    <g id="グループ_41687" data-name="グループ 41687" transform="translate(596 9179)">
      <path id="パス_66" data-name="パス 66" d="M92.425,51.264h33.417a25.132,25.132,0,1,0,0-50.264H26.159a25.132,25.132,0,1,0,0,50.264H59.575" fill="none" stroke="#2fb6c2" stroke-linecap="round" stroke-linejoin="round" stroke-width="2"/>
      <path id="パス_67" data-name="パス 67" d="M0,0V24" transform="translate(75.999 49.134)" fill="none" stroke="#2fb6c2" stroke-linecap="round" stroke-width="2"/>
    </g>
  </g>
</svg>
