<svg xmlns="http://www.w3.org/2000/svg" width="40" height="40" viewBox="0 0 40 40">
  <g id="グループ_41918" data-name="グループ 41918" transform="translate(-1111 -17)">
    <circle id="楕円形_4" data-name="楕円形 4" cx="20" cy="20" r="20" transform="translate(1111 17)" fill="#fff"/>
    <path id="tel-icon" d="M1.609,1C0,2.041-.321,5.311.288,7.976a24.073,24.073,0,0,0,3.183,7.481A25,25,0,0,0,9,21.415c2.185,1.643,5.3,2.687,6.913,1.641A8.169,8.169,0,0,0,18,20.823l-.867-1.336L14.75,15.812c-.177-.273-1.288-.023-1.852.3A5.371,5.371,0,0,0,11.437,17.7c-.522.3-.959,0-1.872-.419-1.122-.516-2.384-2.121-3.388-3.574-.917-1.51-1.868-3.316-1.881-4.551-.011-1.005-.107-1.527.381-1.88a5.372,5.372,0,0,0,2.046-.687c.522-.385,1.2-1.3,1.025-1.57L5.365,1.34,4.5,0A8.17,8.17,0,0,0,1.609,1" transform="translate(1122 25)" fill="#2fb6c2"/>
  </g>
</svg>
