<svg id="グループ_48" data-name="グループ 48" xmlns="http://www.w3.org/2000/svg" width="40" height="40" viewBox="0 0 40 40">
  <circle id="楕円形_17" data-name="楕円形 17" cx="20" cy="20" r="20" fill="#fff"/>
  <g id="グループ_47" data-name="グループ 47" transform="translate(10 7)">
    <path id="パス_16" data-name="パス 16" d="M10.133,6.841,3.822.7A1.958,1.958,0,0,0,.5,2.108v15.26l9.633,9.367Z" transform="translate(-0.499 -0.146)" fill="#0673bc"/>
    <path id="パス_18" data-name="パス 18" d="M9.549,6.628,3.821,1.058A1.958,1.958,0,0,0,.5,2.462V16.89A1.97,1.97,0,0,0,1.1,18.3l7.992,7.772a1.5,1.5,0,0,0,2.087,0L19.167,18.3a1.972,1.972,0,0,0,.6-1.413V2.462a1.957,1.957,0,0,0-3.322-1.4l-5.728,5.57A.837.837,0,0,1,9.549,6.628Z" transform="translate(-0.499 -0.204)" fill="none" stroke="#0673bc" stroke-miterlimit="10" stroke-width="2"/>
  </g>
</svg>
