<svg id="グループ_41678" data-name="グループ 41678" xmlns="http://www.w3.org/2000/svg" width="24" height="24" viewBox="0 0 24 24">
  <path id="パス_59" data-name="パス 59" d="M12,2.162c3.2,0,3.584.012,4.849.07a6.639,6.639,0,0,1,2.228.413,3.718,3.718,0,0,1,1.38.9,3.718,3.718,0,0,1,.9,1.38,6.64,6.64,0,0,1,.413,2.228c.058,1.265.07,1.645.07,4.849s-.012,3.584-.07,4.849a6.64,6.64,0,0,1-.413,2.228,3.974,3.974,0,0,1-2.277,2.277,6.639,6.639,0,0,1-2.228.413c-1.265.058-1.645.07-4.849.07s-3.584-.012-4.849-.07a6.64,6.64,0,0,1-2.228-.413,3.719,3.719,0,0,1-1.38-.9,3.719,3.719,0,0,1-.9-1.38,6.641,6.641,0,0,1-.413-2.228c-.058-1.265-.07-1.645-.07-4.849s.012-3.584.07-4.849a6.641,6.641,0,0,1,.413-2.228,3.719,3.719,0,0,1,.9-1.38,3.719,3.719,0,0,1,1.38-.9A6.639,6.639,0,0,1,7.15,2.232c1.265-.058,1.645-.07,4.849-.07M12,0C8.74,0,8.331.014,7.052.072A8.809,8.809,0,0,0,4.139.63,5.882,5.882,0,0,0,2.013,2.014,5.882,5.882,0,0,0,.629,4.14,8.808,8.808,0,0,0,.071,7.052C.013,8.332,0,8.741,0,12s.014,3.668.072,4.948A8.808,8.808,0,0,0,.629,19.86a5.882,5.882,0,0,0,1.384,2.125A5.882,5.882,0,0,0,4.139,23.37a8.809,8.809,0,0,0,2.913.558C8.331,23.986,8.74,24,12,24s3.668-.014,4.948-.072a8.809,8.809,0,0,0,2.913-.558,6.136,6.136,0,0,0,3.51-3.51,8.808,8.808,0,0,0,.558-2.913C23.985,15.668,24,15.259,24,12s-.014-3.668-.072-4.948a8.808,8.808,0,0,0-.558-2.913,5.883,5.883,0,0,0-1.384-2.125A5.883,5.883,0,0,0,19.86.63,8.809,8.809,0,0,0,16.947.072C15.667.014,15.258,0,12,0" transform="translate(0.001)" fill="#fff"/>
  <path id="パス_60" data-name="パス 60" d="M128.717,122.556a6.162,6.162,0,1,0,6.162,6.162,6.162,6.162,0,0,0-6.162-6.162m0,10.162a4,4,0,1,1,4-4,4,4,0,0,1-4,4" transform="translate(-116.717 -116.718)" fill="#fff"/>
  <path id="パス_61" data-name="パス 61" d="M359.046,88.655a1.44,1.44,0,1,1-1.44-1.44,1.44,1.44,0,0,1,1.44,1.44" transform="translate(-339.2 -83.061)" fill="#fff"/>
</svg>
