<svg xmlns="http://www.w3.org/2000/svg" width="65" height="65" viewBox="0 0 65 65">
  <g id="グループ_41917" data-name="グループ 41917" transform="translate(-650 -11167)">
    <circle id="楕円形_67" data-name="楕円形 67" cx="32.5" cy="32.5" r="32.5" transform="translate(650 11167)" fill="#2fb6c2"/>
    <g id="inst" transform="translate(665 11181.64)">
      <path id="パス_59" data-name="パス 59" d="M17.859,3.218c4.769,0,5.334.018,7.217.1a9.881,9.881,0,0,1,3.316.615,5.534,5.534,0,0,1,2.054,1.336,5.534,5.534,0,0,1,1.336,2.054,9.882,9.882,0,0,1,.615,3.316c.086,1.883.1,2.448.1,7.217s-.018,5.334-.1,7.217a9.882,9.882,0,0,1-.615,3.316,5.915,5.915,0,0,1-3.39,3.39,9.881,9.881,0,0,1-3.316.615c-1.883.086-2.448.1-7.217.1s-5.334-.018-7.217-.1a9.882,9.882,0,0,1-3.317-.615,5.535,5.535,0,0,1-2.054-1.336,5.534,5.534,0,0,1-1.336-2.054,9.884,9.884,0,0,1-.615-3.316c-.086-1.883-.1-2.448-.1-7.217s.018-5.334.1-7.217a9.884,9.884,0,0,1,.615-3.316A5.535,5.535,0,0,1,5.272,5.273,5.535,5.535,0,0,1,7.326,3.937a9.882,9.882,0,0,1,3.316-.615c1.883-.086,2.448-.1,7.217-.1m0-3.218C13.009,0,12.4.021,10.5.107A13.111,13.111,0,0,0,6.16.938,8.755,8.755,0,0,0,3,3,8.755,8.755,0,0,0,.937,6.161,13.109,13.109,0,0,0,.107,10.5C.02,12.4,0,13.01,0,17.86s.021,5.459.108,7.364a13.109,13.109,0,0,0,.83,4.335A8.755,8.755,0,0,0,3,32.723a8.755,8.755,0,0,0,3.163,2.06,13.111,13.111,0,0,0,4.336.83c1.9.087,2.513.107,7.364.107s5.459-.021,7.364-.107a13.11,13.11,0,0,0,4.336-.83,9.133,9.133,0,0,0,5.223-5.224,13.109,13.109,0,0,0,.83-4.335c.087-1.9.107-2.513.107-7.364S35.7,12.4,35.612,10.5a13.109,13.109,0,0,0-.83-4.335A8.757,8.757,0,0,0,32.722,3,8.756,8.756,0,0,0,29.559.938a13.11,13.11,0,0,0-4.336-.83C23.318.021,22.71,0,17.859,0" transform="translate(0.001 0)" fill="#fff"/>
      <path id="パス_60" data-name="パス 60" d="M131.727,122.556a9.172,9.172,0,1,0,9.171,9.172,9.172,9.172,0,0,0-9.171-9.172m0,15.125a5.953,5.953,0,1,1,5.953-5.953,5.953,5.953,0,0,1-5.953,5.953" transform="translate(-113.866 -113.867)" fill="#fff"/>
      <path id="パス_61" data-name="パス 61" d="M360.452,89.358a2.143,2.143,0,1,1-2.143-2.143,2.143,2.143,0,0,1,2.143,2.143" transform="translate(-330.915 -81.032)" fill="#fff"/>
    </g>
  </g>
</svg>
