<svg id="グループ_41914" data-name="グループ 41914" xmlns="http://www.w3.org/2000/svg" width="78.325" height="95.874" viewBox="0 0 78.325 95.874">
  <path id="パス_259" data-name="パス 259" d="M18.219,49.194c-2.032.086-4.064.221-6.1.432A71.775,71.775,0,0,0,0,51.693,71.772,71.772,0,0,0,12.121,53.76c2.03.213,4.061.345,6.09.432-1.373,1.5-2.714,3.027-4,4.612A71.532,71.532,0,0,0,7.1,68.836a71.669,71.669,0,0,0,10.033-7.111c1.576-1.277,3.1-2.61,4.584-3.975.085,2.912.209,5.822.458,8.734A105.3,105.3,0,0,0,24.243,81.28,105.3,105.3,0,0,0,26.31,66.485c.249-2.912.375-5.824.458-8.736,1.488,1.365,3.01,2.7,4.586,3.976a71.669,71.669,0,0,0,10.033,7.111A71.659,71.659,0,0,0,34.277,58.8c-1.288-1.587-2.631-3.12-4.008-4.617,2.032-.088,4.064-.222,6.1-.435a72.42,72.42,0,0,0,12.121-2.059,72.421,72.421,0,0,0-12.121-2.059c-2.035-.213-4.069-.347-6.1-.433,1.376-1.5,2.719-3.033,4.008-4.624a72.341,72.341,0,0,0,7.116-10.026,72.589,72.589,0,0,0-10.028,7.114c-1.579,1.282-3.1,2.617-4.6,3.985-.085-2.917-.211-5.834-.46-8.751a106.521,106.521,0,0,0-2.059-14.793A106.276,106.276,0,0,0,22.184,36.9c-.249,2.917-.377,5.832-.462,8.749-1.491-1.368-3.015-2.7-4.594-3.983A72.589,72.589,0,0,0,7.1,34.551a72.341,72.341,0,0,0,7.116,10.026c1.287,1.587,2.628,3.12,4,4.617" transform="translate(0 14.594)" fill="#3fa6f5"/>
  <path id="パス_260" data-name="パス 260" d="M36.7,22.347a22.8,22.8,0,0,0-8.213,1.791,22.826,22.826,0,0,0,8.21,1.793A33.657,33.657,0,0,0,38.5,36.364a33.621,33.621,0,0,0,1.806-10.436,23.033,23.033,0,0,0,8.211-1.79,23.047,23.047,0,0,0-8.213-1.788,34.021,34.021,0,0,0-1.8-10.438,34.048,34.048,0,0,0-1.8,10.435" transform="translate(29.806 15.864)" fill="#d6f2f5"/>
  <path id="パス_261" data-name="パス 261" d="M17.173,10.435A22.8,22.8,0,0,0,8.96,12.226a22.826,22.826,0,0,0,8.21,1.793,33.657,33.657,0,0,0,1.806,10.433,33.621,33.621,0,0,0,1.806-10.436,23.033,23.033,0,0,0,8.211-1.79,23.047,23.047,0,0,0-8.213-1.788A34.021,34.021,0,0,0,18.976,0a34.048,34.048,0,0,0-1.8,10.435" transform="translate(5.916)" fill="#0673bc"/>
</svg>
