<svg id="グループ_41916" data-name="グループ 41916" xmlns="http://www.w3.org/2000/svg" width="66" height="93.985" viewBox="0 0 66 93.985">
  <path id="パス_262" data-name="パス 262" d="M41.019,31.453C43.011,31.368,45,31.237,47,31.03A70.358,70.358,0,0,0,58.879,29,70.2,70.2,0,0,0,47,26.977c-1.99-.208-3.981-.339-5.97-.423,1.346-1.466,2.661-2.967,3.922-4.521A70.247,70.247,0,0,0,51.918,12.2a70.257,70.257,0,0,0-9.835,6.971c-1.544,1.252-3.035,2.558-4.494,3.9-.081-2.855-.205-5.708-.449-8.564A103.234,103.234,0,0,0,35.114,0a103.234,103.234,0,0,0-2.026,14.5c-.244,2.856-.368,5.711-.449,8.566-1.458-1.339-2.951-2.645-4.5-3.9A70.257,70.257,0,0,0,18.309,12.2a70.122,70.122,0,0,0,6.971,9.835c1.261,1.556,2.578,3.058,3.927,4.526-1.992.086-3.984.218-5.976.425A71,71,0,0,0,11.348,29,70.993,70.993,0,0,0,23.23,31.022c2,.208,3.989.34,5.983.425-1.349,1.471-2.666,2.973-3.929,4.531a71.031,71.031,0,0,0-6.975,9.83,71.158,71.158,0,0,0,9.83-6.974c1.548-1.256,3.042-2.565,4.5-3.906.083,2.86.207,5.719.451,8.579a104.181,104.181,0,0,0,2.02,14.5,104.421,104.421,0,0,0,2.018-14.5c.246-2.86.369-5.717.452-8.577,1.461,1.341,2.956,2.65,4.5,3.9a71.158,71.158,0,0,0,9.83,6.974,71.031,71.031,0,0,0-6.975-9.83c-1.26-1.554-2.576-3.056-3.924-4.524" transform="translate(7.121)" fill="#d6f2f5"/>
  <path id="パス_263" data-name="パス 263" d="M11.588,44.849a22.3,22.3,0,0,0,8.053-1.756,22.392,22.392,0,0,0-8.05-1.758A33.05,33.05,0,0,0,9.82,31.108,32.958,32.958,0,0,0,8.05,41.338,22.579,22.579,0,0,0,0,43.093a22.592,22.592,0,0,0,8.051,1.753A33.342,33.342,0,0,0,9.82,55.078a33.377,33.377,0,0,0,1.767-10.229" transform="translate(0 19.52)" fill="#3fa6f5"/>
  <path id="パス_264" data-name="パス 264" d="M31.114,56.761A22.371,22.371,0,0,0,39.167,55a22.392,22.392,0,0,0-8.05-1.758A32.986,32.986,0,0,0,29.346,43.02a32.958,32.958,0,0,0-1.771,10.23A22.544,22.544,0,0,0,19.526,55a22.592,22.592,0,0,0,8.051,1.753A33.351,33.351,0,0,0,29.346,66.99a33.377,33.377,0,0,0,1.767-10.229" transform="translate(12.253 26.995)" fill="#0673bc"/>
</svg>
