<svg xmlns="http://www.w3.org/2000/svg" width="157.918" height="114.185" viewBox="0 0 157.918 114.185">
  <g id="グループ_80" data-name="グループ 80" transform="matrix(0.966, 0.259, -0.259, 0.966, 21.768, -6.559)">
    <g id="グループ_81" data-name="グループ 81">
      <path id="パス_39" data-name="パス 39" d="M44.948,13.311c-1.365,0-6.271-7.943-7.064-9.175l-1.54-2.377c-.44.529-.858,1.079-1.276,1.607C33.44,5.412,31.811,7.48,30.139,9.505a32.216,32.216,0,0,1-3.762,4.115.777.777,0,0,1-.374.132.664.664,0,0,1-.374-1.21,30.893,30.893,0,0,0,3.5-3.873c1.672-2,3.279-4.071,4.907-6.118L35.266.967c.2-.242.374-.5.594-.725A.658.658,0,0,1,36.366,0a.743.743,0,0,1,.418.154c.242.176,1.958,2.9,2.2,3.278.945,1.452,1.87,2.9,2.86,4.334a20.487,20.487,0,0,0,3.433,4.313.7.7,0,0,1,.329.595.671.671,0,0,1-.659.637M38.72,12.3a24.722,24.722,0,0,1-2.64,6.4.627.627,0,0,1-.55.308.716.716,0,0,1-.682-.682.655.655,0,0,1,.11-.33,24.071,24.071,0,0,0,2.288-5.237h-.418a12.275,12.275,0,0,0-3.609.441.807.807,0,0,1-.33.088.667.667,0,0,1-.285-1.255,12.039,12.039,0,0,1,4.18-.615,7.222,7.222,0,0,1,1.386.088.7.7,0,0,1,.572.66c0,.044-.022.088-.022.132m-2.376-1.937a.66.66,0,0,1-.638-.484,6.176,6.176,0,0,0-1.034-1.76.657.657,0,0,1-.176-.441A.677.677,0,0,1,35.134,7a.716.716,0,0,1,.506.22A6.357,6.357,0,0,1,37,9.681a.681.681,0,0,1-.66.682" fill="#131313"/>
      <path id="パス_40" data-name="パス 40" d="M56.649,4.049a9.285,9.285,0,0,1-2.068-.265c-1.189,2.421-3.631,6.447-5.721,8.1a.659.659,0,0,1-.4.132.648.648,0,0,1-.66-.66.615.615,0,0,1,.242-.485,26.019,26.019,0,0,0,5.28-7.48,5.711,5.711,0,0,1-1.408-.7A.65.65,0,0,1,52.27,1.5a.6.6,0,0,1,.352.11,9.4,9.4,0,0,0,1.255.616c.2-.418.308-1.078.88-1.078a.634.634,0,0,1,.638.616,2.714,2.714,0,0,1-.264.814,7.282,7.282,0,0,0,1.54.176,4.2,4.2,0,0,0,1.87-.395.782.782,0,0,1,.308-.067.639.639,0,0,1,.639.638c0,.9-2.179,1.123-2.839,1.123m4.269,12.629a.657.657,0,0,1-.638-.528,3.379,3.379,0,0,0-1.189-1.98c-.154,1.98-1.254,3.652-3.41,3.652-1.738,0-2.641-1.341-2.641-2.97,0-1.892,1.739-2.905,3.455-2.905a5.443,5.443,0,0,1,1.32.177c.022-1.343.11-4.643,1.254-5.545a.7.7,0,0,1,.419-.154.638.638,0,0,1,.637.638.6.6,0,0,1-.219.484c-.815.858-.815,3.961-.815,5.083a4.713,4.713,0,0,1,2.465,3.256c0,.044.022.088.022.133a.677.677,0,0,1-.66.659m-4.423-3.432c-.968,0-2.156.462-2.156,1.606,0,.88.33,1.672,1.342,1.672,1.782,0,2.134-1.628,2.134-3.058a4.486,4.486,0,0,0-1.32-.22m7.019-5.369c-.22,0-1.452-.55-1.892-.638A.679.679,0,0,1,61.05,6.6a.659.659,0,0,1,.638-.661,8.512,8.512,0,0,1,2.178.749.676.676,0,0,1,.308.55.63.63,0,0,1-.66.638" fill="#131313"/>
      <path id="パス_41" data-name="パス 41" d="M70.664,18.306a.661.661,0,0,1-1.057-.506.689.689,0,0,1,.264-.528c.374-.308.77-.616,1.123-.946a8.222,8.222,0,0,0,2.75-5.787c0-.836-.748-.947-1.409-.947a8.218,8.218,0,0,0-2.992.661.609.609,0,0,1-.286.066c-.88,0-.968-1.694-.968-2.311a9.893,9.893,0,0,1,.748-3.762.687.687,0,0,1,.572-.33.648.648,0,0,1,.66.66.571.571,0,0,1-.088.33,8.718,8.718,0,0,0-.572,3.19,3.658,3.658,0,0,0,.044.7A9.5,9.5,0,0,1,72.291,8.3c1.431,0,2.773.593,2.773,2.244a9.994,9.994,0,0,1-4.4,7.767M74.206,4.07a.677.677,0,0,1-.66-.66A13.882,13.882,0,0,0,73.3,1.055.928.928,0,0,1,73.26.813a.677.677,0,0,1,.66-.659.64.64,0,0,1,.616.418,13.028,13.028,0,0,1,.33,2.838.677.677,0,0,1-.66.66" fill="#131313"/>
      <g id="グループ_86" data-name="グループ 86">
        <path id="パス_42" data-name="パス 42" d="M94.094,16.59h-.11a.631.631,0,0,1-.109-1.254,3.5,3.5,0,0,0,.66-.22,2.626,2.626,0,0,0,1.122-2.311c0-2.4-2.575-3.3-4.555-3.454-.22-.022-.44-.022-.66-.022a12.747,12.747,0,0,0-2.882.352,24.39,24.39,0,0,1-.507,3.828c-.7,2.4-2.266,4.335-4.95,4.335-1.717,0-3.191-.924-3.191-2.772,0-3.367,4.731-5.633,7.437-6.425.111-1.408.22-2.839.308-4.247a16.4,16.4,0,0,1-2.09-.2.642.642,0,0,1-.55-.638.625.625,0,0,1,.638-.638h.088c.66.044,1.32.132,1.98.176.022-.374,0-.748.044-1.122a.649.649,0,0,1,.682-.638.658.658,0,0,1,.616.682c0,.374-.043.77-.065,1.144.77.044,1.518.066,2.288.066a.658.658,0,0,1,.66.638.658.658,0,0,1-.66.638c-.792,0-1.562,0-2.354-.043-.066,1.3-.155,2.574-.265,3.872a13.209,13.209,0,0,1,2.795-.308c.242,0,.506,0,.748.021a8.662,8.662,0,0,1,2.354.485,4.647,4.647,0,0,1,3.367,4.268,3.56,3.56,0,0,1-2.839,3.785M80.21,15.072c0,1.122.924,1.474,1.893,1.474,2.046,0,3.212-1.584,3.718-3.389a20.615,20.615,0,0,0,.418-3.1c-2,.616-6.029,2.531-6.029,5.017M98.231,7.613c-.286,0-.528-.374-.528-.639,0-.109.044-.219.044-.33a8.264,8.264,0,0,0-.418-2.221.826.826,0,0,1-.088-.309.646.646,0,0,1,1.21-.33,8.532,8.532,0,0,1,.572,2.9c0,.595-.154.925-.792.925" transform="translate(0 0)" fill="#e1185d"/>
        <path id="パス_43" data-name="パス 43" d="M109.008,6.447c-.175.2-.4.374-.593.572l-1.343,1.32c-.154,1.5-.176,3.015-.242,4.511-.066,1.628-.2,3.257-.154,4.885v.286a.606.606,0,0,1-.572.616c-.022,0-.022.022-.044.022-.572,0-.616-.528-.616-.947,0-2.683.132-5.368.286-8.03a19.088,19.088,0,0,0-1.474,1.518.591.591,0,0,1-.506.264.615.615,0,0,1-.616-.616.679.679,0,0,1,.11-.374,5.91,5.91,0,0,1,.88-.946c.792-.815,1.628-1.628,2.442-2.443.528-.506,1.057-1.056,1.606-1.54a.647.647,0,0,1,.418-.177.6.6,0,0,1,.617.617.6.6,0,0,1-.2.462m-1.3-2.882a27.737,27.737,0,0,0-3.278,3.41c-.132.309-.264.484-.638.484a.618.618,0,0,1-.572-.66c0-.594,1.276-1.826,1.628-2.2a19.61,19.61,0,0,1,2.068-1.981.7.7,0,0,1,.418-.154.6.6,0,0,1,.594.616.594.594,0,0,1-.22.485m12.74,8.888c-.4,0-.814-.044-1.232-.044-.462,0-.924.023-1.386.023,0,.836,0,1.672-.022,2.509s.044,3.343-.66,3.982a1.485,1.485,0,0,1-1.167.308,9.248,9.248,0,0,1-2.2-.572.6.6,0,0,1-.374-.55.634.634,0,0,1,.638-.616.593.593,0,0,1,.265.066,6.475,6.475,0,0,0,1.826.418h.154a34.637,34.637,0,0,0,.286-5.524c-1.122.023-2.244.067-3.367.111a8.548,8.548,0,0,0,.242,2.618.707.707,0,0,1,.066.309.584.584,0,0,1-.616.593.648.648,0,0,1-.55-.33,9.043,9.043,0,0,1-.4-3.1,19.31,19.31,0,0,0-2.552.22c-.044,0-.067.022-.111.022a.634.634,0,0,1-.109-1.254,17.579,17.579,0,0,1,2.64-.242c1.584-.111,3.169-.155,4.753-.2V9.461a44.081,44.081,0,0,0-6.623.353c-.022,0-.088.021-.11.021a.634.634,0,0,1-.11-1.254,16.842,16.842,0,0,1,2.574-.242q2.343-.132,4.687-.132a21.826,21.826,0,0,1,2.42.067.62.62,0,0,1,.594.659.631.631,0,0,1-.66.572c-.506,0-1.012-.044-1.518-.044v1.717h.836a12.657,12.657,0,0,1,1.826.044.606.606,0,0,1,.572.616.629.629,0,0,1-.616.615m-1.5-5.764c-.418,0-.858-.022-1.276-.022-1.54,0-3.081.044-4.621.154-.374.022-.748.11-1.122.11h-.088a.584.584,0,0,1-.616-.594.678.678,0,0,1,.022-.22,21.657,21.657,0,0,1-.132-2.707,13.279,13.279,0,0,1,.2-2.816.635.635,0,0,1,.616-.484.611.611,0,0,1,.594.77,23.74,23.74,0,0,1,3.543-.154,17.791,17.791,0,0,1,2.42.066.61.61,0,0,1,.55.55,5.312,5.312,0,0,1,.022.836,32.276,32.276,0,0,1-.154,3.257h.066a.627.627,0,1,1-.022,1.254M117.81,1.981c-.484-.023-.968-.023-1.431-.023a23.659,23.659,0,0,0-3.74.176.433.433,0,0,1-.242,0c-.022.286-.022.572-.022.881V3.3a32,32,0,0,1,5.435-.2V1.981ZM112.4,4.555c0,.352.022.726.044,1.078,1.738-.154,3.477-.221,5.215-.221a8.867,8.867,0,0,0,.088-1.078,33.039,33.039,0,0,0-5.347.221" transform="translate(0 0)" fill="#e1185d"/>
        <path id="パス_44" data-name="パス 44" d="M128.743,6.293a19.022,19.022,0,0,0-1.782,7.789,6.769,6.769,0,0,0,.11,1.342c.2-.066.374-.22.594-.22a.681.681,0,0,1,.66.682.644.644,0,0,1-.286.528,3.64,3.64,0,0,1-1.386.506.653.653,0,0,1-.616-.4,6.643,6.643,0,0,1-.374-2.464c0-2.266.748-6.469,1.914-8.427a.675.675,0,0,1,1.255.33.8.8,0,0,1-.089.33m10.1,8.493c-.968,0-4.181-2.553-4.181-3.564a.644.644,0,0,1,.66-.639.67.67,0,0,1,.6.353,7.333,7.333,0,0,0,3.146,2.574.656.656,0,0,1-.22,1.276M139.2,7.5a.662.662,0,0,1-.66-.66.606.606,0,0,1,.066-.286,4.4,4.4,0,0,0-1.21-.132,5.338,5.338,0,0,0-1.562.2.661.661,0,0,1-.22.044.683.683,0,0,1-.661-.683.663.663,0,0,1,.462-.616,7.223,7.223,0,0,1,2.047-.285c.9,0,2.552.176,2.552,1.386,0,.44-.307,1.034-.814,1.034" transform="translate(0 0)" fill="#e1185d"/>
      </g>
      <path id="パス_45" data-name="パス 45" d="M39.246,34.475a1.19,1.19,0,0,1-.286,0,8.083,8.083,0,0,0-1.012.067c-.308,2.266-.594,4.532-.88,6.8l.66.308c.4.177.924.286.924.814a.653.653,0,0,1-.638.639,4.989,4.989,0,0,1-1.1-.44c-.11.814-.154,1.672-.286,2.486a.641.641,0,0,1-.7.572.612.612,0,0,1-.573-.638v-.044c.044-.968.221-1.958.352-2.926a13.823,13.823,0,0,1-3.124-1.694A.791.791,0,0,1,32.4,39.8c0-1.474.242-3.322.4-4.774a13.89,13.89,0,0,0-1.936.308.279.279,0,0,1-.132.022.654.654,0,0,1-.638-.639A.619.619,0,0,1,30.6,34.1a16.608,16.608,0,0,1,2.332-.374l.22-2.09c.088-.9.132-1.8.264-2.707a.627.627,0,0,1,.639-.571.6.6,0,0,1,.615.615v.067c-.044.9-.175,1.8-.263,2.706l-.177,1.826c.859-.088,1.739-.176,2.6-.22l.286-2.2c.044-.33.066-.682.132-1.012a.643.643,0,0,1,.638-.551.621.621,0,0,1,.616.639v.065c-.044.991-.242,1.981-.374,2.971.44-.021.528-.044.968-.044.4,0,.77.155.77.616a.619.619,0,0,1-.616.638m-5.148.4c-.177,1.584-.375,3.212-.418,4.818a15.6,15.6,0,0,0,2.178,1.122c.286-2.068.528-4.114.814-6.183-.858.067-1.717.132-2.574.243m16.062.286a.6.6,0,0,1-.572-.4,8.4,8.4,0,0,0-.616-1.055c-1.5.2-3.015.286-4.533.4-1.144.088-2.332.2-3.5.2h-.022a.657.657,0,0,1-.638-.66.593.593,0,0,1,.11-.33c.836-1.408,1.694-2.816,2.509-4.246l.726-1.276a.654.654,0,0,1,.572-.33.62.62,0,0,1,.616.637.815.815,0,0,1-.088.309c-.22.439-.484.857-.726,1.275l-1.915,3.3c2.025-.11,4.049-.242,6.074-.462-.33-.44-.661-.88-1.013-1.32a.7.7,0,0,1-.154-.418.634.634,0,0,1,.638-.616.659.659,0,0,1,.462.219c.507.551,2.707,3.5,2.707,4.137a.639.639,0,0,1-.638.639m-.924,8.932c-.044,0-.111-.021-.155-.021a6.791,6.791,0,0,0-1.166-.044,42.223,42.223,0,0,0-5.28.242,2.223,2.223,0,0,1,.066.374.644.644,0,0,1-1.276.088,15.219,15.219,0,0,1-.177-2c-.066-1.319-.087-2.662-.087-3.982,0-.682-.022-1.409.043-2.09a.64.64,0,0,1,1.277.088c0,.132-.023.242-.023.374a25.171,25.171,0,0,1,4.269-.286,8.091,8.091,0,0,1,2.068.175.657.657,0,0,1,.375.639c0,.33-.022.638-.045.968-.088,1.387-.175,2.8-.33,4.181.463,0,1.079.066,1.079.682a.619.619,0,0,1-.638.615m-2.575-5.984a20.684,20.684,0,0,0-4.225.286v.77c-.022,1.276.022,2.575.111,3.85a41.787,41.787,0,0,1,4.972-.241c.2-1.408.221-2.839.33-4.247a2.4,2.4,0,0,0,.022-.4c-.4-.021-.814-.021-1.21-.021" fill="#131313"/>
      <path id="パス_46" data-name="パス 46" d="M68.421,41.67c-.154.264-.308.573-.484.815a.66.66,0,0,1-.551.286.607.607,0,0,1-.66-.639.733.733,0,0,1,.111-.374l.484-.836a7.676,7.676,0,0,0,.924-3.7A5.5,5.5,0,0,0,66.286,33.2c-1.43,3.653-4.906,8.494-9.241,8.494-2.288,0-3.763-1.123-3.763-3.5,0-3.5,3.565-5.941,6.58-6.843a14.813,14.813,0,0,1,.264-2.223.655.655,0,0,1,1.3.132v.111c-.088.549-.176,1.1-.22,1.65a10.56,10.56,0,0,1,1.87-.176,6.774,6.774,0,0,1,2.464.44,7.1,7.1,0,0,0,.2-1.8.66.66,0,0,1,.659-.66c.573,0,.66.527.66.968a8.577,8.577,0,0,1-.33,2.112,6.591,6.591,0,0,1,2.839,5.325,9.214,9.214,0,0,1-1.144,4.444M59.8,32.759c-2.223.792-5.215,2.773-5.215,5.435,0,1.672.9,2.2,2.464,2.2a6.081,6.081,0,0,0,3.74-1.518c-.923-1.453-1.011-4.422-.989-6.117m3.278-.616a8.371,8.371,0,0,0-1.958.242c-.022.308-.022.616-.022.924a12.772,12.772,0,0,0,.682,4.665l.242-.286a17.18,17.18,0,0,0,3.124-5.149,5.573,5.573,0,0,0-2.068-.4" fill="#131313"/>
      <path id="パス_47" data-name="パス 47" d="M76.23,44.706a.664.664,0,0,1-.4.132.657.657,0,0,1-.66-.638.692.692,0,0,1,.264-.528c.374-.307.77-.616,1.123-.946a8.219,8.219,0,0,0,2.75-5.786c0-.836-.748-.947-1.409-.947a8.218,8.218,0,0,0-2.992.661.608.608,0,0,1-.286.065c-.88,0-.968-1.693-.968-2.31a9.889,9.889,0,0,1,.748-3.762.684.684,0,0,1,.572-.33.648.648,0,0,1,.66.66.573.573,0,0,1-.088.33,8.71,8.71,0,0,0-.572,3.19,3.664,3.664,0,0,0,.044.7,9.5,9.5,0,0,1,2.838-.505c1.431,0,2.773.593,2.773,2.244a9.991,9.991,0,0,1-4.4,7.766m3.542-14.235a.677.677,0,0,1-.66-.66,13.872,13.872,0,0,0-.242-2.355.935.935,0,0,1-.044-.242.677.677,0,0,1,.66-.66.642.642,0,0,1,.616.418,13.037,13.037,0,0,1,.33,2.839.677.677,0,0,1-.66.66" fill="#131313"/>
      <path id="パス_48" data-name="パス 48" d="M99.858,40.284a3.6,3.6,0,0,1-2.068-.6c-1.189-.836-1.541-2.926-1.541-4.29,0-.242.022-.507.045-.77-2.289.924-4.555,1.914-6.822,2.9a39.495,39.495,0,0,0-.462,5.083c0,.242.066.506.066.748a.648.648,0,0,1-.66.66c-.726,0-.7-.88-.7-1.386a38.143,38.143,0,0,1,.352-4.466c-.7.307-1.386.615-2.068.967l-.968.485a.609.609,0,0,1-.286.065.648.648,0,0,1-.66-.66.614.614,0,0,1,.33-.572c.4-.22.814-.418,1.232-.615.858-.419,1.716-.815,2.6-1.211l.374-2.508a13.9,13.9,0,0,0-2.53-.265.665.665,0,0,1-.705-.615c0-.507.353-.7.815-.7a15.243,15.243,0,0,1,2.64.285,22.187,22.187,0,0,1,.616-3.014.68.68,0,0,1,.638-.484.662.662,0,0,1,.661.66.484.484,0,0,1-.022.176c-.243.969-.463,1.958-.617,2.948a.128.128,0,0,0,.088.023.642.642,0,0,1,.463.637c0,.462-.353.66-.771.639l-.22,1.6c.705-.307,7.085-3.1,7.481-3.1a.648.648,0,0,1,.661.659.372.372,0,0,1-.022.154,7.051,7.051,0,0,0-.2,1.673c0,.858.221,2.684.969,3.212a2.215,2.215,0,0,0,1.3.353,3.468,3.468,0,0,0,.946-.133.547.547,0,0,1,.176-.022.662.662,0,0,1,.66.661c0,.792-1.232.814-1.782.814" fill="#131313"/>
      <path id="パス_49" data-name="パス 49" d="M111.87,40.988a4.851,4.851,0,0,1-4.621,3.322,2.585,2.585,0,0,1-2.685-2.552c0-2.134,2.509-2.685,4.2-2.685a7.886,7.886,0,0,1,2.024.242c-.109-1.341-2.134-3.542-3.388-3.938a.676.676,0,0,1-.528-.638.622.622,0,0,1,.418-.616,17.541,17.541,0,0,0,3.124-3.982,5.611,5.611,0,0,0-2.046-.859.662.662,0,0,1-.506-.66.638.638,0,0,1,.638-.638.429.429,0,0,1,.176.022c.946.22,3.081.858,3.081,2.091,0,.967-2.289,3.74-3.037,4.488,1.474.99,3.389,2.992,3.389,4.885,0,.131-.022.263-.022.4a.617.617,0,0,1,.241.485.689.689,0,0,1-.461.638m-3.125-.616c-.836,0-2.882.22-2.882,1.386a1.3,1.3,0,0,0,1.386,1.254,3.5,3.5,0,0,0,3.345-2.4,6.572,6.572,0,0,0-1.849-.241" fill="#131313"/>
      <path id="パス_50" data-name="パス 50" d="M128.942,37.974c-.308.4-.638.88-1.078.88a.657.657,0,0,1-.418-1.166c.682-.66,2.134-3.125,2.134-4.049,0-.374-1.122-.484-1.408-.55a5.237,5.237,0,0,1-3.058-1.343c-.154,2.883-.242,5.832-.616,8.692.264,0,.462.4.462.639a.644.644,0,0,1-.418.616,9.065,9.065,0,0,0-1.144.88c-.947.748-1.849,1.517-2.8,2.221a.577.577,0,0,1-.418.155.677.677,0,0,1-.66-.661c0-.418.55-.748.88-1.011l1.386-1.122a16.062,16.062,0,0,1,1.585-1.233.644.644,0,0,1-.2-.484v-.11c.265-1.892.352-3.829.462-5.721.133-2.112.286-4.269.286-6.381a.678.678,0,0,1,.661-.66c.616,0,.66.484.66.946a2.911,2.911,0,0,0,1.3,2.707c1.254.77,4.378.418,4.378,2.376,0,1.254-1.231,3.389-1.98,4.379" fill="#131313"/>
    </g>
    <path id="パス_51" data-name="パス 51" d="M5.4,52.848a40.733,40.733,0,0,0,3.674,2.309,49.975,49.975,0,0,0,8.653,3.654,74.571,74.571,0,0,0,12.589,2.871c2.349.341,4.778.582,7.268.723s5.059.12,7.609.02c5.12-.181,10.3-.542,15.32-.683A88.018,88.018,0,0,1,74.71,62.2q1.627.21,3.133.542a24.11,24.11,0,0,1,2.871.823,15.054,15.054,0,0,1,2.509,1.125,10.259,10.259,0,0,1,2.008,1.445c.141.141.281.261.4.4s.261.261.381.421c.121.141.221.281.341.422a5.011,5.011,0,0,1,.281.442l.081.1.06.12c.04.081.08.141.12.221s.081.141.121.221.06.141.1.221c.061.141.121.3.181.442.04.14.1.3.141.441a7.473,7.473,0,0,1,.341,1.747,20.593,20.593,0,0,0-1.687,2.068,22.558,22.558,0,0,0-3.011,5.863c-.081.241-.161.5-.241.743s-.141.5-.221.743-.12.5-.181.742-.12.5-.16.763c-.02.121-.02.261-.04.4v.2l.02.241a1.292,1.292,0,0,0,.361.8.867.867,0,0,0,.823.16,2.277,2.277,0,0,0,.763-.381,5.272,5.272,0,0,0,1-1,11.943,11.943,0,0,0,.763-1.084c.221-.362.422-.743.6-1.1a1.855,1.855,0,0,1,.141-.282c.04-.1.08-.18.12-.281.081-.18.141-.361.221-.542a24.854,24.854,0,0,0,1.205-3.915,14.616,14.616,0,0,0,.361-2.891v-.6c0-.121-.02-.221-.02-.342a18.6,18.6,0,0,1,1.827-1.706,24.111,24.111,0,0,1,2.992-2.088A30.4,30.4,0,0,1,96.776,66.2c.582-.221,1.164-.461,1.767-.642.3-.1.6-.2.9-.281l.924-.241a39.537,39.537,0,0,1,7.509-1.205c1.264-.08,2.529-.12,3.774-.12.623,0,1.265.02,1.887.02.623.02,1.265.02,1.888.04,2.489.02,4.939-.08,7.308-.261A66.937,66.937,0,0,0,135.465,61.3a47.337,47.337,0,0,0,4.959-1.706c.723-.3,1.406-.623,2.028-.924.623-.321,1.205-.622,1.707-.923a30.693,30.693,0,0,0,3.594-2.47,13.516,13.516,0,0,0,3.333-3.534,11.378,11.378,0,0,0,.943-1.827,9.879,9.879,0,0,0,.462-1.485,4.973,4.973,0,0,0,.1-1.747,1.7,1.7,0,0,0-.3-.8.611.611,0,0,0-.341-.221.344.344,0,0,0-.161,0c-.221-.04-.361.2-.522.7s-.321,1.244-.662,2.208a12.594,12.594,0,0,1-1.747,3.353,16.984,16.984,0,0,1-3.815,3.775,25.563,25.563,0,0,1-4.216,2.449,44.258,44.258,0,0,1-8.955,2.972,72.186,72.186,0,0,1-12.508,1.646c-1.144.06-2.309.08-3.473.08h-1.767c-.582-.02-1.205-.02-1.807-.02a51.087,51.087,0,0,0-7.389.442A36.07,36.07,0,0,0,97.659,65a26.256,26.256,0,0,0-6.545,3.393,21.62,21.62,0,0,0-2.63,2.228,5.477,5.477,0,0,0-.2-.923,2.176,2.176,0,0,0-.141-.442c-.06-.14-.1-.3-.16-.442a6.3,6.3,0,0,0-.422-.923c-.161-.321-.361-.6-.562-.924a7.357,7.357,0,0,0-.723-.883,9.758,9.758,0,0,0-1.887-1.586,16.533,16.533,0,0,0-2.369-1.265,21.711,21.711,0,0,0-2.731-.924c-.964-.261-1.947-.482-2.991-.662q-1.536-.271-3.193-.422c-1.084-.1-2.208-.181-3.353-.241-2.268-.12-4.618-.14-7.027-.1-4.8.06-9.778.361-14.7.582-2.469.1-4.919.181-7.308.161-2.389-.041-4.758-.2-7.027-.442A79.03,79.03,0,0,1,21.3,58.811a54.948,54.948,0,0,1-8.894-3.253,31.292,31.292,0,0,1-4.277-2.409,22.043,22.043,0,0,1-4.1-3.554A11.752,11.752,0,0,1,2.03,46.423a15.314,15.314,0,0,1-.663-2.128,4.665,4.665,0,0,0-.2-.542c-.08-.121-.16-.181-.281-.161a.557.557,0,0,0-.161-.02.48.48,0,0,0-.341.2,1.313,1.313,0,0,0-.2.3,2.531,2.531,0,0,0-.14.5,4.479,4.479,0,0,0,.12,1.787,8.9,8.9,0,0,0,1.667,3.252A13.935,13.935,0,0,0,5.4,52.848M87.8,72.584a15.111,15.111,0,0,1-.4,3.052,24.148,24.148,0,0,1-1.345,4.1,2.678,2.678,0,0,1-.261.542c-.1.18-.18.361-.3.542a8.7,8.7,0,0,1-.683,1.064,7.866,7.866,0,0,1-.843.964,1.7,1.7,0,0,1-.442.321.565.565,0,0,1-.3.08A.309.309,0,0,1,83,83.024a.44.44,0,0,1-.02-.16v-.281c.02-.221.061-.442.1-.683.06-.241.12-.5.18-.743a26.211,26.211,0,0,1,1-2.991,22.809,22.809,0,0,1,1.506-2.952,21.481,21.481,0,0,1,1.988-2.73c.04.02.04.06.04.1" fill="#131313"/>
    <circle id="楕円形_23" data-name="楕円形 23" cx="2" cy="2" r="2" transform="translate(87 -9.999)" fill="#e1185d"/>
    <circle id="楕円形_24" data-name="楕円形 24" cx="2" cy="2" r="2" transform="translate(109 -9.999)" fill="#e1185d"/>
    <circle id="楕円形_25" data-name="楕円形 25" cx="2" cy="2" r="2" transform="translate(131 -9.999)" fill="#e1185d"/>
  </g>
</svg>
