<svg id="line" xmlns="http://www.w3.org/2000/svg" xmlns:xlink="http://www.w3.org/1999/xlink" width="24" height="24" viewBox="0 0 24 24">
  <defs>
    <clipPath id="clip-path">
      <rect id="長方形_2771" data-name="長方形 2771" width="24" height="24" fill="none"/>
    </clipPath>
  </defs>
  <g id="グループ_41675" data-name="グループ 41675" clip-path="url(#clip-path)">
    <path id="パス_54" data-name="パス 54" d="M90.679,124.78H89.151v-2.772a.153.153,0,0,0-.153-.153h-.567a.153.153,0,0,0-.153.153V125.5h0v0a.153.153,0,0,0,.153.153h2.248a.153.153,0,0,0,.153-.153v-.567a.153.153,0,0,0-.153-.153" transform="translate(-81.657 -112.716)" fill="#06c755"/>
    <path id="パス_55" data-name="パス 55" d="M150.811,121.855h-.567a.153.153,0,0,0-.153.153v2.074l-1.6-2.158-.012-.016h0l-.009-.01,0,0-.008-.007,0,0-.008-.006,0,0-.008,0,0,0-.009,0-.005,0-.009,0H148.4l-.009,0H147.8a.153.153,0,0,0-.153.153V125.5a.153.153,0,0,0,.153.153h.567a.153.153,0,0,0,.153-.153v-2.074l1.6,2.16a.155.155,0,0,0,.039.038h0l.01.006,0,0,.007,0,.008,0,0,0,.011,0h0a.156.156,0,0,0,.04.005h.564a.153.153,0,0,0,.153-.153v-3.492a.153.153,0,0,0-.153-.153" transform="translate(-136.573 -112.716)" fill="#06c755"/>
    <path id="パス_56" data-name="パス 56" d="M129.45,121.855h-.567a.153.153,0,0,0-.153.153V125.5a.153.153,0,0,0,.153.153h.567a.153.153,0,0,0,.153-.153v-3.492a.153.153,0,0,0-.153-.153" transform="translate(-119.075 -112.716)" fill="#06c755"/>
    <path id="パス_57" data-name="パス 57" d="M201.553,121.855H199.3a.153.153,0,0,0-.153.153v0h0V125.5h0v0a.153.153,0,0,0,.153.153h2.248a.153.153,0,0,0,.153-.153v-.567a.153.153,0,0,0-.153-.153h-1.528v-.589h1.528a.153.153,0,0,0,.153-.153v-.567a.153.153,0,0,0-.153-.153h-1.528v-.589h1.528a.153.153,0,0,0,.153-.153v-.567a.153.153,0,0,0-.153-.153" transform="translate(-184.216 -112.716)" fill="#06c755"/>
    <path id="パス_58" data-name="パス 58" d="M18.59,0H5.411A5.41,5.41,0,0,0,0,5.411V18.59A5.41,5.41,0,0,0,5.411,24H18.59A5.41,5.41,0,0,0,24,18.59V5.411A5.41,5.41,0,0,0,18.59,0m-.305,14.865h0A25.836,25.836,0,0,1,12,19.51c-.854.36-.728-.229-.693-.431.02-.12.114-.685.114-.685a1.643,1.643,0,0,0-.026-.723c-.09-.223-.444-.338-.7-.395C6.843,16.767,4,14.079,4,10.869c0-3.58,3.59-6.493,8-6.493s8,2.913,8,6.493a5.778,5.778,0,0,1-1.715,4" fill="#06c755"/>
  </g>
</svg>
