<svg id="f" xmlns="http://www.w3.org/2000/svg" xmlns:xlink="http://www.w3.org/1999/xlink" width="24" height="24" viewBox="0 0 24 24">
  <defs>
    <clipPath id="clip-path">
      <rect id="長方形_2770" data-name="長方形 2770" width="24" height="24" fill="none"/>
    </clipPath>
  </defs>
  <g id="グループ_41673" data-name="グループ 41673" clip-path="url(#clip-path)">
    <path id="パス_53" data-name="パス 53" d="M21.188,0H2.813A2.821,2.821,0,0,0,0,2.813V21.188A2.821,2.821,0,0,0,2.813,24h9.81V14.8H9.75V11.1h2.873V8.409c0-3.021,1.479-4.818,4.882-4.818h2.833v3.7H18.193c-1.325,0-1.413.517-1.413,1.483l0,2.322h3.4l-.47,3.7H16.775V24h4.413A2.821,2.821,0,0,0,24,21.188V2.813A2.821,2.821,0,0,0,21.188,0" fill="#1d4384"/>
  </g>
</svg>
