<svg xmlns="http://www.w3.org/2000/svg" width="433" height="59" viewBox="0 0 433 59">
  <g id="グループ_41832" data-name="グループ 41832" transform="translate(-275.548 -20284)">
    <rect id="長方形_2849" data-name="長方形 2849" width="193" height="31" transform="translate(515.548 20312)" fill="#ffffb2"/>
    <rect id="長方形_2850" data-name="長方形 2850" width="226" height="31" transform="translate(275.548 20312)" fill="#ffffb2"/>
    <g id="グループ_41825" data-name="グループ 41825" transform="translate(397.548 20284)">
      <g id="グループ_41830" data-name="グループ 41830" transform="translate(112.738 -40.439)">
        <path id="パス_229" data-name="パス 229" d="M20.945,50.988a47.538,47.538,0,0,0-7.476,1.268.788.788,0,0,1-.34.051,1.366,1.366,0,0,1-.344-2.689A45.071,45.071,0,0,1,20.8,48.25a1.328,1.328,0,0,1,1.417,1.272,1.342,1.342,0,0,1-1.27,1.465m2.2,7.571c-.537.83-1.172,1.563-1.759,2.347-1.612,2.1-4.494,6.006-6.448,7.667a1.331,1.331,0,0,1-.928.393,1.347,1.347,0,0,1-.977-2.3A108.249,108.249,0,0,0,20.9,56.945a1.392,1.392,0,0,1,2.491.833,1.482,1.482,0,0,1-.244.782M21.091,42a1.352,1.352,0,0,1-.635-.147,24.19,24.19,0,0,0-5.375-.83,1.368,1.368,0,0,1,0-2.735c1.321,0,5.522.486,6.6,1.124a1.377,1.377,0,0,1,.733,1.221A1.324,1.324,0,0,1,21.091,42M50.844,69.015a1.361,1.361,0,0,1-1.319.975,10.716,10.716,0,0,1-4.25-1.707,1.427,1.427,0,0,1-.588-1.075,1.38,1.38,0,0,1,1.419-1.37,10.7,10.7,0,0,1,2.3,1.075A143.49,143.49,0,0,0,48.792,52.4v-2.64a35.73,35.73,0,0,0-3.959-.147c-1.807,0-3.566.049-5.373.1,0,3.075-.1,6.2-.1,9.279,1.319-.1,2.591-.2,3.908-.242.149-1.956.149-3.908.3-5.864a1.366,1.366,0,0,1,1.417-1.317A1.322,1.322,0,0,1,46.3,52.94c0,1.712-.147,3.422-.293,5.129a22.114,22.114,0,0,1-.344,4.054A1.4,1.4,0,0,1,44.1,63.249c-.633,0-1.124-.782-1.124-1.368V61.49c-3.664.2-7.278.828-10.942.828h-.147c-1.807,0-1.514-2.978-1.514-4.15a37.7,37.7,0,0,1,.2-4.692,1.346,1.346,0,0,1,2.687.1v.144c-.1,1.417-.147,2.787-.147,4.2v1.563l3.517-.3c0-3.126.1-6.253.1-9.379a71.753,71.753,0,0,0-8.551.733c-.193,3.959-.242,7.964-.242,11.921a43.234,43.234,0,0,0,.193,6.643,2.02,2.02,0,0,0,.049.244,1.384,1.384,0,0,1-2.733.293,55.454,55.454,0,0,1-.246-7.081c0-3.128.049-6.3.147-9.43.051-1.517,0-3.128.2-4.643a1.366,1.366,0,0,1,2.445-.684,74.8,74.8,0,0,1,8.793-.682,23.925,23.925,0,0,1,.147-3.812c-2.149.1-4.347.2-6.5.342-.83.1-1.661.242-2.442.293h-.293a1.358,1.358,0,0,1-1.321-1.368,1.313,1.313,0,0,1,1.124-1.319,34.089,34.089,0,0,1,4.985-.491c-.147-2.149-.2-4.3-.2-6.448a38.492,38.492,0,0,0-7.818.733,1.076,1.076,0,0,1-.391.049A1.4,1.4,0,0,1,22.7,33.74a1.359,1.359,0,0,1,1.026-1.317c1.563-.54,6.743-.735,8.551-.833a28.381,28.381,0,0,1,.049-2.882,1.37,1.37,0,0,1,2.735.147c0,.879-.049,1.759-.049,2.64,2-.1,4.054-.149,6.059-.149.193-1.368.242-2.735.437-4.1a1.336,1.336,0,0,1,1.368-1.175,1.358,1.358,0,0,1,1.37,1.321,35.531,35.531,0,0,1-.442,3.91,47.45,47.45,0,0,1,5.278.047,1.371,1.371,0,1,1-.147,2.738c-1.124,0-2.2-.051-3.324-.051h-2.1a41.28,41.28,0,0,1-1.223,6.4c.782,0,1.514-.049,2.3-.049,1.272,0,4.008-.342,4.008,1.468a1.356,1.356,0,0,1-1.319,1.368c-1.026,0-2.052-.1-3.077-.1-1.612,0-3.175.047-4.789.1.293.391.1,3.175.1,3.761,1.612-.047,3.275-.1,4.887-.1a35.73,35.73,0,0,1,6.106.342,1.363,1.363,0,0,1,1.026,1.319c.1.979,0,2.052,0,3.077,0,3.031.049,15.1-.684,17.394M35.015,34.229c0,2.149.049,4.252.2,6.4l4.2-.149a26.043,26.043,0,0,0,1.319-6.4q-2.858,0-5.715.144" transform="translate(6.483 14.371)" fill="#2fb6c2"/>
        <path id="パス_230" data-name="パス 230" d="M75.921,67.27a41.724,41.724,0,0,1-11.286,2.589c-5.031,0-17.392-7.329-21.74-10.409A64.549,64.549,0,0,1,36.885,67.9a12.531,12.531,0,0,1-1.075,1.223,1.523,1.523,0,0,1-1.075.437A1.494,1.494,0,0,1,33.319,68.1a1.335,1.335,0,0,1,.391-.928c.684-.828,1.417-1.561,2.052-2.394A65.97,65.97,0,0,0,40.99,57.1c1.124-1.854,2.149-3.761,3.175-5.715.391-.782.782-1.563,1.221-2.342a1.418,1.418,0,0,1,2.687.633c0,.782-3.126,6.206-3.761,7.281A72.461,72.461,0,0,0,54.377,63.02c0-6.4.147-12.8.389-19.2-2,.1-3.957.2-5.959.393a1.411,1.411,0,0,1-1.368,1.124,1.363,1.363,0,0,1-1.319-.928c-.44-.928-.391-7.818-.391-9.137V30.576a15.76,15.76,0,0,1,.049-2.147,1.443,1.443,0,1,1,2.882.147c0,.34-.049.733-.049,1.072a94.792,94.792,0,0,1,12.849-.733A27.194,27.194,0,0,1,66,29.162a1.37,1.37,0,0,1,1.075,1.414,52.979,52.979,0,0,1-1.514,10.36,1.507,1.507,0,0,1,.83,1.366,1.455,1.455,0,0,1-1.465,1.37c-.782.049-1.612-.051-2.394-.051-1.612,0-3.273.051-4.885.1-.147,2.54-.2,5.031-.244,7.571,2.247-.147,4.494-.2,6.741-.2,1.221,0,3.761-.389,3.761,1.514a1.412,1.412,0,0,1-1.514,1.419c-.977,0-2-.051-2.98-.051-2,0-4.054,0-6.057.2-.049,2.687-.1,5.424-.1,8.111v2.2c1.81.877,5.473,2.589,7.476,2.589,2.738,0,7.525-1.37,10.065-2.394a1.992,1.992,0,0,1,.537-.1A1.419,1.419,0,0,1,76.751,66a1.286,1.286,0,0,1-.83,1.272M61.509,31.8a88.13,88.13,0,0,0-12.947.733v2c0,2.247,0,4.543.1,6.839,4.641-.437,9.332-.584,13.973-.584a45.612,45.612,0,0,0,1.514-8.944c-.879-.047-1.759-.047-2.638-.047" transform="translate(32.794 15.581)" fill="#2fb6c2"/>
        <path id="パス_231" data-name="パス 231" d="M63.2,66.284a2.448,2.448,0,0,1-.586-.1c-5.913-2.3-6.352-11.823-6.352-17.15A133.2,133.2,0,0,1,57.05,35.7l.389-4.057c.049-.684.1-1.417.2-2.1a1.469,1.469,0,0,1,2.931.147v.147c-.342,6.4-1.319,12.8-1.319,19.2,0,3.764.2,10.6,2.98,13.435A6.364,6.364,0,0,0,63.742,63.5a1.552,1.552,0,0,1,.928,1.368A1.459,1.459,0,0,1,63.2,66.284" transform="translate(60.797 17.003)" fill="#2fb6c2"/>
        <path id="パス_232" data-name="パス 232" d="M83.244,34.541a32.478,32.478,0,0,1-7.865,1.072C72.546,40.94,67.073,53.64,67.073,59.5c0,.83.293,1.517.293,2.052a1.547,1.547,0,0,1-1.514,1.465c-1.612,0-1.71-2.3-1.71-3.466,0-6.3,4.887-18.029,7.962-23.942-1.463-.1-3.026-.1-4.494-.34a1.435,1.435,0,0,1-1.27-1.465,1.4,1.4,0,0,1,1.417-1.465h.2c1.907.144,3.812.34,5.715.34a17.738,17.738,0,0,1,1.419-2.247,1.486,1.486,0,0,1,1.172-.537,1.46,1.46,0,0,1,1.465,1.417,1.6,1.6,0,0,1-.537,1.223,32.3,32.3,0,0,0,5.276-.833,1.076,1.076,0,0,1,.391-.049,1.439,1.439,0,0,1,1.465,1.465,1.466,1.466,0,0,1-1.075,1.419M96.581,44.555a2.452,2.452,0,0,1-.586-.1,5.9,5.9,0,0,0-1.856-.293,17.168,17.168,0,0,0-6.594,1.563,1.354,1.354,0,0,1-.637.144,1.463,1.463,0,0,1-.682-2.782,19.867,19.867,0,0,1,7.865-1.81c1.27,0,3.91.1,3.91,1.858a1.418,1.418,0,0,1-1.419,1.417M96.288,61.36c-2.345,0-7.865-1.123-9.77-2.394a1.368,1.368,0,0,1-.684-1.172A1.524,1.524,0,0,1,87.3,56.231a1.341,1.341,0,0,1,.782.244c2.247,1.221,5.764,1.759,8.3,1.954A1.412,1.412,0,0,1,97.8,59.944a1.472,1.472,0,0,1-1.514,1.417" transform="translate(70.409 19.045)" fill="#2fb6c2"/>
        <path id="パス_233" data-name="パス 233" d="M89.219,30.431c-.391,6.792-.733,14.121-.733,20.96a1.538,1.538,0,0,1-1.465,1.465c-1.465,0-1.516-1.319-1.516-2.394,0-4.494.2-8.941.344-13.435a65.132,65.132,0,0,1,.437-6.939,1.443,1.443,0,0,1,1.468-1.268,1.411,1.411,0,0,1,1.465,1.465Zm-1.27,36.3c-2.1,0-1.954-4.592-1.954-7.278a1.5,1.5,0,0,1,1.465-1.465c2.491,0,.977,4.443,1.856,6.79a1.769,1.769,0,0,1,.1.537,1.4,1.4,0,0,1-1.465,1.417" transform="translate(96.478 17.73)" fill="#2fb6c2"/>
      </g>
      <g id="グループ_41831" data-name="グループ 41831" transform="translate(-113.098)">
        <path id="パス_223" data-name="パス 223" d="M41.335,30.388H41.19c-2.365-.147-4.726-.193-7.089-.193-3.764,0-7.525.094-11.287.193l-.048,1.254a1.455,1.455,0,0,1,1.061-.484,1.389,1.389,0,0,1,.868.34,53.043,53.043,0,0,0,13.551,6.945,16.832,16.832,0,0,0,2.124.482,1.317,1.317,0,0,1,1.155,1.35,1.3,1.3,0,0,1-1.3,1.3.29.29,0,0,1-.193-.048c-4.292-.482-10.419-3.713-14.132-5.982a19.709,19.709,0,0,1-2.99-1.977l-.145-.193c-.048,3.426-.1,6.85-.1,10.276A1.318,1.318,0,0,1,21.319,45a1.38,1.38,0,0,1-1.353-1.348c0-2.9.048-5.789.048-8.683-1.688,1.254-11.044,7.716-12.539,7.716a1.339,1.339,0,0,1-1.353-1.3,1.315,1.315,0,0,1,.774-1.2c.772-.484,1.64-.87,2.411-1.355A82.612,82.612,0,0,0,20.065,31.5l.048-1.015c-4.728.2-9.454.388-14.132.918-.965.142-1.929.241-2.845.434-.482.046-.967.239-1.447.289h-.34A1.318,1.318,0,0,1,0,30.773a1.342,1.342,0,0,1,1.011-1.3,20.436,20.436,0,0,1,3.424-.629c5.162-.675,10.467-.868,15.678-1.061.048-.866,0-1.059.1-1.929a1.346,1.346,0,0,1,1.4-1.3,1.318,1.318,0,0,1,1.3,1.4c.048.82-.048.916-.048,1.736,3.81-.1,7.62-.145,11.383-.145,1.64,0,3.277,0,4.917.048a12.421,12.421,0,0,1,2.317.1,1.321,1.321,0,0,1,1.2,1.353,1.292,1.292,0,0,1-1.348,1.35M29.132,17.8c-.145,1.495-.193,3.086-.482,4.533a1.4,1.4,0,0,1-1.35,1.109c-3.135.241-6.269.289-9.4.482a1.056,1.056,0,0,1,.048.384,1.393,1.393,0,0,1-1.353,1.4,1.44,1.44,0,0,1-1.35-1.155,25.717,25.717,0,0,1-.289-3.908c-2.99,1.013-6.028,1.83-9.115,2.556-.1,0-.145.048-.241.048A1.361,1.361,0,0,1,4.2,21.9,1.388,1.388,0,0,1,5.3,20.55c3.233-.822,6.416-1.642,9.551-2.751-.048-1.3-.048-2.652-.048-3.955,0-1.977,0-3.908.193-5.888a1.189,1.189,0,0,1,.193-.577A56.222,56.222,0,0,1,20.4.481,1.355,1.355,0,0,1,21.415,0a1.38,1.38,0,0,1,1.35,1.35,1.508,1.508,0,0,1-.338.868c-1.35,1.784-2.8,3.424-4.053,5.259,1.931-.2,3.908-.246,5.838-.246a20.329,20.329,0,0,1,4.244.292,1.288,1.288,0,0,1,.965,1.206,7.1,7.1,0,0,1,0,1.013c0,2.7-.145,5.4-.289,8.056m-16.5-3.33a1.093,1.093,0,0,1-.675-.193c-1.495-.868-3.858-.868-5.594-1.013a1.389,1.389,0,0,1-1.35-1.4,1.359,1.359,0,0,1,1.447-1.3c1.833,0,5.3.432,6.848,1.4a1.3,1.3,0,0,1,.675,1.16,1.378,1.378,0,0,1-1.35,1.348M24.55,9.936a56.617,56.617,0,0,0-6.995.338c-.048.916-.048,1.787-.048,2.7v1.063a81.883,81.883,0,0,1,9.117-.386c.048-1.208.1-2.462.1-3.667-.723-.048-1.447-.048-2.17-.048m-6.995,6.85c0,1.493.1,2.942.145,4.435l8.393-.432c.193-1.495.241-2.942.338-4.437a67.984,67.984,0,0,0-8.876.434M39.6,21.512c-1.254,0-7.089-3.52-8.586-4.389a1.376,1.376,0,0,1-.675-1.208,1.317,1.317,0,0,1,.434-1.013c.918-.82,1.977-1.543,2.99-2.313,1.208-.916,2.413-1.883,3.716-2.7a1.422,1.422,0,0,1,.723-.241,1.443,1.443,0,0,1,1.4,1.447,1.268,1.268,0,0,1-.581,1.061c-1.64,1.206-3.328,2.365-4.917,3.617,1.975,1.111,3.9,2.221,5.98,3.137a1.349,1.349,0,0,1,.868,1.254,1.38,1.38,0,0,1-1.35,1.35" transform="translate(0)" fill="#2fb6c2"/>
        <path id="パス_224" data-name="パス 224" d="M29.929,39.4a2.421,2.421,0,0,1-.579-.1c-5.838-2.267-6.272-11.671-6.272-16.929a131.516,131.516,0,0,1,.774-13.168l.384-4c.048-.673.1-1.4.2-2.072a1.45,1.45,0,0,1,2.894.145v.142c-.338,6.32-1.3,12.64-1.3,18.957,0,3.713.193,10.465,2.942,13.264a6.211,6.211,0,0,0,1.495,1.011A1.533,1.533,0,0,1,31.376,38a1.442,1.442,0,0,1-1.447,1.4" transform="translate(27.511 2.175)" fill="#2fb6c2"/>
        <path id="パス_225" data-name="パス 225" d="M51.414,25.011c-.772,1.107-1.977,2.6-3.472,2.6-1.3,0-4-1.541-4-2.988a1.482,1.482,0,0,1,1.447-1.447c1.015,0,1.5,1.2,2.46,1.541,1.883-1.109,4.15-7.284,4.15-9.454A3.345,3.345,0,0,0,51.8,14.06c-.627-1.782-4.437-2.023-5.982-2.074-2.942,6.32-7.668,14.518-12.734,19.341a1.383,1.383,0,0,1-1.013.436,1.485,1.485,0,0,1-1.447-1.449A1.377,1.377,0,0,1,31.06,29.3c.868-.916,1.736-1.833,2.508-2.8a72.646,72.646,0,0,0,9.018-14.468c-.965,0-1.929.1-2.894.1a1.452,1.452,0,0,1-1.5-1.4,1.4,1.4,0,0,1,1.4-1.495c1.447,0,2.894-.145,4.34-.145.53-1.206.967-2.411,1.495-3.619a1.454,1.454,0,0,1,1.35-.962,1.487,1.487,0,0,1,1.449,1.447,20.3,20.3,0,0,1-1.157,3.233c3.906.287,7.764,1.447,7.764,6.074,0,3.086-1.688,7.236-3.424,9.746m17.556-3.33a1.348,1.348,0,0,1-1.254-.723,123.916,123.916,0,0,0-7.475-9.935A1.436,1.436,0,0,1,61.3,8.661a1.458,1.458,0,0,1,1.157.53c1.883,2.122,3.619,4.435,5.259,6.7a25.7,25.7,0,0,1,2.508,3.619,1.788,1.788,0,0,1,.193.723,1.451,1.451,0,0,1-1.447,1.447" transform="translate(36.506 5.376)" fill="#2fb6c2"/>
        <path id="パス_226" data-name="パス 226" d="M61.947,27.355a1.31,1.31,0,0,1-.579.142,1.525,1.525,0,0,1-1.5-1.447,1.486,1.486,0,0,1,.868-1.35c.868-.482,1.784-.868,2.652-1.35,2.508-1.4,6.559-4.2,6.559-7.475,0-3.33-4.581-3.762-7.041-3.762a23.231,23.231,0,0,0-8.054,1.541,5.032,5.032,0,0,0-.868.484c-.388.432-.629.769-1.3.769a1.526,1.526,0,0,1-1.447-1.493c0-3.089,9.454-4.2,11.673-4.2,4.34,0,9.937,1.3,9.937,6.655,0,5.45-6.513,9.5-10.9,11.48" transform="translate(61.08 10.989)" fill="#2fb6c2"/>
        <path id="パス_227" data-name="パス 227" d="M83.187,8.08a32.175,32.175,0,0,1-7.764,1.061c-2.8,5.259-8.2,17.8-8.2,23.587,0,.818.289,1.495.289,2.025a1.528,1.528,0,0,1-1.5,1.447c-1.591,0-1.688-2.269-1.688-3.424,0-6.221,4.823-17.8,7.861-23.635-1.445-.1-2.988-.1-4.437-.338A1.417,1.417,0,0,1,66.5,7.357,1.382,1.382,0,0,1,67.9,5.91h.193c1.883.145,3.764.338,5.642.338a17.354,17.354,0,0,1,1.4-2.218,1.467,1.467,0,0,1,1.157-.53,1.44,1.44,0,0,1,1.447,1.4,1.571,1.571,0,0,1-.53,1.206,31.646,31.646,0,0,0,5.208-.82,1.018,1.018,0,0,1,.386-.05A1.422,1.422,0,0,1,84.248,6.68a1.445,1.445,0,0,1-1.061,1.4m13.168,9.888a2.535,2.535,0,0,1-.579-.1,5.832,5.832,0,0,0-1.833-.292,16.952,16.952,0,0,0-6.51,1.545,1.364,1.364,0,0,1-.629.142,1.445,1.445,0,0,1-.675-2.747A19.633,19.633,0,0,1,93.9,14.736c1.254,0,3.86.1,3.86,1.835a1.4,1.4,0,0,1-1.4,1.4m-.289,16.592c-2.315,0-7.764-1.109-9.645-2.363a1.356,1.356,0,0,1-.675-1.157,1.506,1.506,0,0,1,1.447-1.545,1.339,1.339,0,0,1,.772.241c2.218,1.208,5.691,1.738,8.2,1.931a1.391,1.391,0,0,1,1.4,1.493,1.454,1.454,0,0,1-1.5,1.4" transform="translate(76.685 4.172)" fill="#2fb6c2"/>
        <path id="パス_228" data-name="パス 228" d="M106.906,24.75c-.675.868-1.4,1.929-2.363,1.929a1.44,1.44,0,0,1-.916-2.556c1.495-1.447,4.678-6.85,4.678-8.876,0-.818-2.46-1.061-3.086-1.206-2.6-.53-4.774-.965-6.7-2.944-.338,6.32-.53,12.784-1.35,19.054.579,0,1.013.868,1.013,1.4a1.407,1.407,0,0,1-.916,1.35,20.08,20.08,0,0,0-2.508,1.929c-2.076,1.64-4.053,3.325-6.127,4.871a1.275,1.275,0,0,1-.916.34,1.485,1.485,0,0,1-1.447-1.449c0-.916,1.206-1.64,1.929-2.218l3.038-2.46a35.543,35.543,0,0,1,3.474-2.7,1.408,1.408,0,0,1-.436-1.061V29.91c.581-4.147.772-8.391,1.013-12.539.292-4.632.627-9.36.627-13.988a1.484,1.484,0,0,1,1.449-1.447C98.707,1.937,98.8,3,98.8,4.009c0,2.413.675,4.632,2.845,5.934,2.749,1.688,9.6.916,9.6,5.211,0,2.749-2.7,7.427-4.34,9.6" transform="translate(102.832 2.309)" fill="#2fb6c2"/>
      </g>
    </g>
  </g>
</svg>
